<svg xmlns="http://www.w3.org/2000/svg" xmlns:xlink="http://www.w3.org/1999/xlink" viewBox="0 0 456.01 262.12"><defs><linearGradient id="未命名的渐变_26" x1="1" y1="91.35" x2="1" y2="181.12" gradientUnits="userSpaceOnUse"><stop offset="0" stop-color="#81cfff"/><stop offset="1" stop-color="#5ecfff" stop-opacity="0"/></linearGradient><linearGradient id="未命名的渐变_26-2" x1="455.01" y1="72.11" x2="455.01" y2="161.88" xlink:href="#未命名的渐变_26"/><linearGradient id="未命名的渐变_26-3" x1="40.9" y1="143.88" x2="40.9" y2="199.51" xlink:href="#未命名的渐变_26"/><linearGradient id="未命名的渐变_26-4" x1="64.97" y1="95.36" x2="64.97" y2="123.17" xlink:href="#未命名的渐变_26"/><linearGradient id="未命名的渐变_26-5" x1="397.23" y1="104.2" x2="397.23" y2="132.02" xlink:href="#未命名的渐变_26"/><linearGradient id="未命名的渐变_26-6" x1="424.75" y1="133.49" x2="424.75" y2="189.13" xlink:href="#未命名的渐变_26"/><linearGradient id="未命名的渐变_26-7" x1="232.75" y1="224.43" x2="232.75" y2="262.12" xlink:href="#未命名的渐变_26"/><linearGradient id="未命名的渐变_26-8" x1="349.36" y1="26.68" x2="349.36" y2="204.03" xlink:href="#未命名的渐变_26"/><linearGradient id="未命名的渐变_26-9" x1="201.45" y1="55.61" x2="201.45" y2="204.03" xlink:href="#未命名的渐变_26"/><linearGradient id="未命名的渐变_26-10" x1="122.98" y1="26.68" x2="122.98" y2="204.03" xlink:href="#未命名的渐变_26"/><linearGradient id="未命名的渐变_26-11" x1="273.51" y1="0" x2="273.51" y2="209.54" xlink:href="#未命名的渐变_26"/><style>.cls-14{fill:#8cd7ff}.cls-15{fill:#40a8f5}.cls-17{fill:#ffb056}.cls-19{fill:#ffeed2}</style></defs><g id="图层_2" data-name="图层 2"><g id="图层_1-2" data-name="图层 1"><path style="stroke:url(#未命名的渐变_26);stroke-width:2px;fill:none;stroke-miterlimit:10" d="M1 91.35v89.77"/><path style="stroke:url(#未命名的渐变_26-2);stroke-width:2px;fill:none;stroke-miterlimit:10" d="M455.01 72.11v89.77"/><path style="stroke:url(#未命名的渐变_26-3);stroke-width:2px;fill:none;stroke-miterlimit:10" d="M40.9 143.88v55.63"/><path style="stroke:url(#未命名的渐变_26-4);stroke-width:2px;fill:none;stroke-miterlimit:10" d="M64.97 95.36v27.81"/><path style="stroke:url(#未命名的渐变_26-5);stroke-width:2px;fill:none;stroke-miterlimit:10" d="M397.23 104.2v27.82"/><path style="stroke:url(#未命名的渐变_26-6);stroke-width:2px;fill:none;stroke-miterlimit:10" d="M424.75 133.49v55.64"/><path d="M412.28 262.12c-23-23-61-37.69-179.53-37.69S76.24 239.1 53.21 262.12z" style="fill:url(#未命名的渐变_26-7);opacity:.4"/><g style="opacity:.7"><path d="M380.66 26.68h-62.59a2.71 2.71 0 0 0-2.82 2.59v172.17a2.71 2.71 0 0 0 2.82 2.59h62.59a2.72 2.72 0 0 0 2.82-2.59V29.27a2.72 2.72 0 0 0-2.82-2.59zM328.3 147a.9.9 0 0 1-.95.87h-3.6a.9.9 0 0 1-.95-.87v-19.73a.91.91 0 0 1 .95-.87h3.6a.91.91 0 0 1 .95.87zm0-30.23a.91.91 0 0 1-.95.87h-3.6a.91.91 0 0 1-.95-.87V97a.91.91 0 0 1 .95-.87h3.6a.91.91 0 0 1 .95.87zm0-30.24a.91.91 0 0 1-.95.87h-3.6a.91.91 0 0 1-.95-.87V66.8a.91.91 0 0 1 .95-.87h3.6a.91.91 0 0 1 .95.87zm0-30.24a.91.91 0 0 1-.95.87h-3.6a.91.91 0 0 1-.95-.87V36.56a.91.91 0 0 1 .95-.87h3.6a.91.91 0 0 1 .95.87zM340 147a.9.9 0 0 1-.94.87h-3.61a.91.91 0 0 1-.95-.87v-19.73a.92.92 0 0 1 .95-.87h3.61a.91.91 0 0 1 .94.87zm0-30.23a.91.91 0 0 1-.94.87h-3.61a.92.92 0 0 1-.95-.87V97a.92.92 0 0 1 .95-.87h3.61a.91.91 0 0 1 .94.87zm0-30.24a.91.91 0 0 1-.94.87h-3.61a.92.92 0 0 1-.95-.87V66.8a.92.92 0 0 1 .95-.87h3.61a.91.91 0 0 1 .94.87zm0-30.24a.91.91 0 0 1-.94.87h-3.61a.92.92 0 0 1-.95-.87V36.56a.92.92 0 0 1 .95-.87h3.61a.91.91 0 0 1 .94.87zM351.7 147a.9.9 0 0 1-.94.87h-3.61a.9.9 0 0 1-.94-.87v-19.73a.91.91 0 0 1 .94-.87h3.61a.91.91 0 0 1 .94.87zm0-30.23a.91.91 0 0 1-.94.87h-3.61a.91.91 0 0 1-.94-.87V97a.91.91 0 0 1 .94-.87h3.61a.91.91 0 0 1 .94.87zm0-30.24a.91.91 0 0 1-.94.87h-3.61a.91.91 0 0 1-.94-.87V66.8a.91.91 0 0 1 .94-.87h3.61a.91.91 0 0 1 .94.87zm0-30.24a.91.91 0 0 1-.94.87h-3.61a.91.91 0 0 1-.94-.87V36.56a.91.91 0 0 1 .94-.87h3.61a.91.91 0 0 1 .94.87zM363.4 147a.9.9 0 0 1-.94.87h-3.61a.9.9 0 0 1-.94-.87v-19.73a.91.91 0 0 1 .94-.87h3.61a.91.91 0 0 1 .94.87zm0-30.23a.91.91 0 0 1-.94.87h-3.61a.91.91 0 0 1-.94-.87V97a.91.91 0 0 1 .94-.87h3.61a.91.91 0 0 1 .94.87zm0-30.24a.91.91 0 0 1-.94.87h-3.61a.91.91 0 0 1-.94-.87V66.8a.91.91 0 0 1 .94-.87h3.61a.91.91 0 0 1 .94.87zm0-30.24a.91.91 0 0 1-.94.87h-3.61a.91.91 0 0 1-.94-.87V36.56a.91.91 0 0 1 .94-.87h3.61a.91.91 0 0 1 .94.87zM375.11 147a.91.91 0 0 1-.95.87h-3.61a.9.9 0 0 1-.94-.87v-19.73a.91.91 0 0 1 .94-.87h3.61a.92.92 0 0 1 .95.87zm0-30.23a.92.92 0 0 1-.95.87h-3.61a.91.91 0 0 1-.94-.87V97a.91.91 0 0 1 .94-.87h3.61a.92.92 0 0 1 .95.87zm0-30.24a.92.92 0 0 1-.95.87h-3.61a.91.91 0 0 1-.94-.87V66.8a.91.91 0 0 1 .94-.87h3.61a.92.92 0 0 1 .95.87zm0-30.24a.92.92 0 0 1-.95.87h-3.61a.91.91 0 0 1-.94-.87V36.56a.91.91 0 0 1 .94-.87h3.61a.92.92 0 0 1 .95.87z" style="fill:url(#未命名的渐变_26-8);opacity:.4"/><path d="M231.1 55.61h-59.3a2.71 2.71 0 0 0-2.8 2.59v143.24a2.71 2.71 0 0 0 2.8 2.56h59.3a2.71 2.71 0 0 0 2.82-2.59V58.2a2.71 2.71 0 0 0-2.82-2.59zm-48.63 103.76a1.16 1.16 0 0 1-1.2 1.11h-5.4a1.16 1.16 0 0 1-1.2-1.11v-5.22a1.15 1.15 0 0 1 1.2-1.1h5.4a1.15 1.15 0 0 1 1.2 1.1zm0-12.88a1.15 1.15 0 0 1-1.2 1.1h-5.4a1.15 1.15 0 0 1-1.2-1.1v-5.22a1.16 1.16 0 0 1 1.2-1.11h5.4a1.16 1.16 0 0 1 1.2 1.11zm0-12.89a1.16 1.16 0 0 1-1.2 1.11h-5.4a1.16 1.16 0 0 1-1.2-1.11v-5.22a1.15 1.15 0 0 1 1.2-1.1h5.4a1.15 1.15 0 0 1 1.2 1.1zm0-12.88a1.15 1.15 0 0 1-1.2 1.1h-5.4a1.15 1.15 0 0 1-1.2-1.1v-5.22a1.16 1.16 0 0 1 1.2-1.11h5.4a1.16 1.16 0 0 1 1.2 1.11zm0-12.89a1.16 1.16 0 0 1-1.2 1.11h-5.4a1.16 1.16 0 0 1-1.2-1.11v-5.21a1.15 1.15 0 0 1 1.2-1.11h5.4a1.15 1.15 0 0 1 1.2 1.11zm0-12.88a1.15 1.15 0 0 1-1.2 1.1h-5.4a1.15 1.15 0 0 1-1.2-1.1v-5.22a1.16 1.16 0 0 1 1.2-1.11h5.4a1.16 1.16 0 0 1 1.2 1.11zm0-12.89a1.16 1.16 0 0 1-1.2 1.11h-5.4a1.16 1.16 0 0 1-1.2-1.11v-5.21a1.15 1.15 0 0 1 1.2-1.11h5.4a1.15 1.15 0 0 1 1.2 1.11zm0-12.88a1.15 1.15 0 0 1-1.2 1.1h-5.4a1.15 1.15 0 0 1-1.2-1.1V64a1.16 1.16 0 0 1 1.2-1.11h5.4a1.16 1.16 0 0 1 1.2 1.11zm10.08 90.19a1.16 1.16 0 0 1-1.2 1.11H186a1.16 1.16 0 0 1-1.21-1.11v-5.22a1.16 1.16 0 0 1 1.21-1.1h5.4a1.15 1.15 0 0 1 1.2 1.1zm0-12.88a1.15 1.15 0 0 1-1.2 1.1H186a1.16 1.16 0 0 1-1.21-1.1v-5.22a1.16 1.16 0 0 1 1.21-1.11h5.4a1.16 1.16 0 0 1 1.2 1.11zm0-12.89a1.16 1.16 0 0 1-1.2 1.11H186a1.16 1.16 0 0 1-1.21-1.11v-5.22a1.16 1.16 0 0 1 1.21-1.1h5.4a1.15 1.15 0 0 1 1.2 1.1zm0-12.88a1.15 1.15 0 0 1-1.2 1.1H186a1.16 1.16 0 0 1-1.21-1.1v-5.22a1.16 1.16 0 0 1 1.21-1.11h5.4a1.16 1.16 0 0 1 1.2 1.11zm0-12.89a1.16 1.16 0 0 1-1.2 1.11H186a1.16 1.16 0 0 1-1.21-1.11v-5.21a1.16 1.16 0 0 1 1.21-1.11h5.4a1.15 1.15 0 0 1 1.2 1.11zm0-12.88a1.15 1.15 0 0 1-1.2 1.1H186a1.16 1.16 0 0 1-1.21-1.1v-5.22a1.16 1.16 0 0 1 1.21-1.11h5.4a1.16 1.16 0 0 1 1.2 1.11zm0-12.89a1.16 1.16 0 0 1-1.2 1.11H186a1.16 1.16 0 0 1-1.21-1.11v-5.21a1.16 1.16 0 0 1 1.21-1.11h5.4a1.15 1.15 0 0 1 1.2 1.11zm0-12.88a1.15 1.15 0 0 1-1.2 1.1H186a1.16 1.16 0 0 1-1.21-1.1V64a1.16 1.16 0 0 1 1.21-1.15h5.4a1.16 1.16 0 0 1 1.2 1.11zm10.08 90.19a1.16 1.16 0 0 1-1.21 1.11H196a1.16 1.16 0 0 1-1.2-1.11v-5.22a1.15 1.15 0 0 1 1.2-1.1h5.4a1.16 1.16 0 0 1 1.21 1.1zm0-12.88a1.16 1.16 0 0 1-1.21 1.1H196a1.15 1.15 0 0 1-1.2-1.1v-5.22a1.16 1.16 0 0 1 1.2-1.11h5.4a1.16 1.16 0 0 1 1.21 1.11zm0-12.89a1.16 1.16 0 0 1-1.21 1.11H196a1.16 1.16 0 0 1-1.2-1.11v-5.22a1.15 1.15 0 0 1 1.2-1.1h5.4a1.16 1.16 0 0 1 1.21 1.1zm0-12.88a1.16 1.16 0 0 1-1.21 1.1H196a1.15 1.15 0 0 1-1.2-1.1v-5.22a1.16 1.16 0 0 1 1.2-1.11h5.4a1.16 1.16 0 0 1 1.21 1.11zm0-12.89a1.16 1.16 0 0 1-1.21 1.11H196a1.16 1.16 0 0 1-1.2-1.11v-5.21a1.15 1.15 0 0 1 1.2-1.11h5.4a1.16 1.16 0 0 1 1.21 1.11zm0-12.88a1.16 1.16 0 0 1-1.21 1.1H196a1.15 1.15 0 0 1-1.2-1.1v-5.22a1.16 1.16 0 0 1 1.2-1.11h5.4a1.16 1.16 0 0 1 1.21 1.11zm0-12.89a1.16 1.16 0 0 1-1.21 1.11H196a1.16 1.16 0 0 1-1.2-1.11v-5.21a1.15 1.15 0 0 1 1.2-1.11h5.4a1.16 1.16 0 0 1 1.21 1.11zm0-12.88a1.16 1.16 0 0 1-1.21 1.1H196a1.15 1.15 0 0 1-1.2-1.1V64a1.16 1.16 0 0 1 1.2-1.11h5.4a1.16 1.16 0 0 1 1.23 1.11zm25.21 90.19a1.16 1.16 0 0 1-1.2 1.11H206.1a1.16 1.16 0 0 1-1.2-1.11v-5.22a1.15 1.15 0 0 1 1.2-1.1h20.54a1.15 1.15 0 0 1 1.2 1.1zm0-12.88a1.15 1.15 0 0 1-1.2 1.1H206.1a1.15 1.15 0 0 1-1.2-1.1v-5.22a1.16 1.16 0 0 1 1.2-1.11h20.54a1.16 1.16 0 0 1 1.2 1.11zm0-12.89a1.16 1.16 0 0 1-1.2 1.11H206.1a1.16 1.16 0 0 1-1.2-1.11v-5.22a1.15 1.15 0 0 1 1.2-1.1h20.54a1.15 1.15 0 0 1 1.2 1.1zm0-12.88a1.15 1.15 0 0 1-1.2 1.1H206.1a1.15 1.15 0 0 1-1.2-1.1v-5.22a1.16 1.16 0 0 1 1.2-1.11h20.54a1.16 1.16 0 0 1 1.2 1.11zm0-12.89a1.16 1.16 0 0 1-1.2 1.11H206.1a1.16 1.16 0 0 1-1.2-1.11v-5.21a1.15 1.15 0 0 1 1.2-1.11h20.54a1.15 1.15 0 0 1 1.2 1.11zm0-12.88a1.15 1.15 0 0 1-1.2 1.1H206.1a1.15 1.15 0 0 1-1.2-1.1v-5.22a1.16 1.16 0 0 1 1.2-1.11h20.54a1.16 1.16 0 0 1 1.2 1.11zm0-12.89a1.16 1.16 0 0 1-1.2 1.11H206.1a1.16 1.16 0 0 1-1.2-1.11v-5.21a1.15 1.15 0 0 1 1.2-1.11h20.54a1.15 1.15 0 0 1 1.2 1.11zm0-12.88a1.15 1.15 0 0 1-1.2 1.1H206.1a1.15 1.15 0 0 1-1.2-1.1V64a1.16 1.16 0 0 1 1.2-1.11h20.54a1.16 1.16 0 0 1 1.2 1.11z" style="fill:url(#未命名的渐变_26-9);opacity:.4"/><path d="M161.13 26.68h-76.3A2.71 2.71 0 0 0 82 29.27v172.17a2.71 2.71 0 0 0 2.83 2.56h76.3a2.71 2.71 0 0 0 2.82-2.59V29.27a2.71 2.71 0 0 0-2.82-2.59zM154.34 161a1.16 1.16 0 0 1-1.2 1.11H92.83a1.16 1.16 0 0 1-1.21-1.11v-5.21a1.16 1.16 0 0 1 1.21-1.11h60.31a1.15 1.15 0 0 1 1.2 1.11zm0-14.67a1.15 1.15 0 0 1-1.2 1.1H92.83a1.16 1.16 0 0 1-1.21-1.1v-5.22a1.16 1.16 0 0 1 1.21-1.11h60.31a1.16 1.16 0 0 1 1.2 1.11zm0-14.68a1.16 1.16 0 0 1-1.2 1.11H92.83a1.16 1.16 0 0 1-1.21-1.11v-5.22a1.16 1.16 0 0 1 1.21-1.1h60.31a1.15 1.15 0 0 1 1.2 1.1zm0-14.68a1.16 1.16 0 0 1-1.2 1.11H92.83a1.16 1.16 0 0 1-1.21-1.11v-5.21a1.16 1.16 0 0 1 1.21-1.11h60.31a1.15 1.15 0 0 1 1.2 1.11zm0-14.67a1.15 1.15 0 0 1-1.2 1.1H92.83a1.16 1.16 0 0 1-1.21-1.1V97a1.16 1.16 0 0 1 1.21-1.11h60.31a1.16 1.16 0 0 1 1.2 1.11zm0-14.68a1.16 1.16 0 0 1-1.2 1.11H92.83a1.16 1.16 0 0 1-1.21-1.11v-5.27a1.16 1.16 0 0 1 1.21-1.1h60.31a1.15 1.15 0 0 1 1.2 1.1zm0-14.68a1.16 1.16 0 0 1-1.2 1.11H92.83a1.16 1.16 0 0 1-1.21-1.11v-5.26a1.16 1.16 0 0 1 1.21-1.11h60.31a1.15 1.15 0 0 1 1.2 1.11zm0-14.67a1.15 1.15 0 0 1-1.2 1.1H92.83a1.16 1.16 0 0 1-1.21-1.1V53a1.16 1.16 0 0 1 1.21-1.11h60.31a1.16 1.16 0 0 1 1.2 1.11zm0-14.68a1.16 1.16 0 0 1-1.2 1.11H92.83a1.16 1.16 0 0 1-1.21-1.11v-5.27a1.16 1.16 0 0 1 1.21-1.1h60.31a1.15 1.15 0 0 1 1.2 1.1z" style="fill:url(#未命名的渐变_26-10);opacity:.4"/><path d="M306.21 0h-65.39a2.51 2.51 0 0 0-2.42 2.59v204.35a2.51 2.51 0 0 0 2.42 2.6h65.39a2.51 2.51 0 0 0 2.41-2.6V2.59A2.51 2.51 0 0 0 306.21 0zm-5.82 134.28a1.06 1.06 0 0 1-1 1.1h-51.72a1.06 1.06 0 0 1-1-1.1v-5.22a1.07 1.07 0 0 1 1-1.11h51.69a1.07 1.07 0 0 1 1 1.11zm0-14.68a1.07 1.07 0 0 1-1 1.11h-51.72a1.07 1.07 0 0 1-1-1.11v-5.22a1.06 1.06 0 0 1 1-1.1h51.69a1.06 1.06 0 0 1 1 1.1zm0-14.68a1.07 1.07 0 0 1-1 1.11h-51.72a1.07 1.07 0 0 1-1-1.11v-5.21a1.07 1.07 0 0 1 1-1.11h51.69a1.07 1.07 0 0 1 1 1.11zm0-14.67a1.06 1.06 0 0 1-1 1.1h-51.72a1.06 1.06 0 0 1-1-1.1V85a1.07 1.07 0 0 1 1-1.11h51.69a1.07 1.07 0 0 1 1 1.11zm0-14.68a1.07 1.07 0 0 1-1 1.11h-51.72a1.07 1.07 0 0 1-1-1.11v-5.22a1.06 1.06 0 0 1 1-1.1h51.69a1.06 1.06 0 0 1 1 1.1zm0-14.68a1.07 1.07 0 0 1-1 1.11h-51.72a1.07 1.07 0 0 1-1-1.11v-5.21a1.07 1.07 0 0 1 1-1.11h51.69a1.07 1.07 0 0 1 1 1.11zm0-14.67a1.06 1.06 0 0 1-1 1.1h-51.72a1.06 1.06 0 0 1-1-1.1V41a1.07 1.07 0 0 1 1-1.11h51.69a1.07 1.07 0 0 1 1 1.11zm0-14.68a1.07 1.07 0 0 1-1 1.11h-51.72a1.07 1.07 0 0 1-1-1.11v-5.22a1.06 1.06 0 0 1 1-1.1h51.69a1.06 1.06 0 0 1 1 1.1zm0-14.68a1.07 1.07 0 0 1-1 1.11h-51.72a1.07 1.07 0 0 1-1-1.11v-5.21a1.07 1.07 0 0 1 1-1.11h51.69a1.07 1.07 0 0 1 1 1.11z" style="fill:url(#未命名的渐变_26-11);opacity:.4"/></g><path d="M315.5 74.68a5.32 5.32 0 0 0-3.58-1.38h-149.6a6.41 6.41 0 0 0-5.55 3.21 3.34 3.34 0 0 1 2.16-.78h151.84a3.42 3.42 0 0 1 3.4 3.4v106.22a3.36 3.36 0 0 1-1.32 2.68 6.93 6.93 0 0 0 4.41-6.46V78.63a5.29 5.29 0 0 0-1.76-3.95z" style="fill:#2c94ee"/><path class="cls-14" d="M293.51 81.67h-1.1v1.67h2.2v-1.67h-1.1z"/><path class="cls-14" d="M295.72 80.65v1.67h-1.11v-.65h-1.1v-1.02h2.21zm11.33-1.71A3.06 3.06 0 1 1 304 82a3.06 3.06 0 0 1 3.05-3.06zm.71 3.06 1-1-.71-.71-1 1-1-1-.71.71 1 1-1 1 .71.71 1-1 1 1 .71-.71z"/><path class="cls-14" d="M294.13 78.94a3.06 3.06 0 1 1-3.05 3.06 3.06 3.06 0 0 1 3.05-3.06zm1.59 3.38v-1.67h-2.21v1h-1.1v1.67h2.2v-1zm-14.5-3.38a3.06 3.06 0 1 1-3.06 3.06 3.05 3.05 0 0 1 3.06-3.06zm1.51 3.56v-1h-3v1z"/><path class="cls-15" d="M314.17 79.14v8.29H155.53v-8.29a3.41 3.41 0 0 1 3.4-3.4h151.84a3.42 3.42 0 0 1 3.4 3.4zM310.11 82a3.06 3.06 0 1 0-3.06 3 3.06 3.06 0 0 0 3.06-3zm-12.92 0a3.06 3.06 0 1 0-3.06 3 3.06 3.06 0 0 0 3.06-3zm-12.92 0a3.06 3.06 0 1 0-3 3 3.05 3.05 0 0 0 3-3z"/><path class="cls-14" d="M238.61 136.26a3.76 3.76 0 0 1-2.33 3.47V146a.37.37 0 0 1-.37.36h-2.12a.36.36 0 0 1-.36-.36v-6.26a3.76 3.76 0 1 1 5.18-3.47z"/><path class="cls-14" d="M314.17 87.43v97.92a3.42 3.42 0 0 1-3.4 3.4H158.93a3.4 3.4 0 0 1-3.4-3.4V87.43zm-59 63.87V128a3.55 3.55 0 0 0-3.55-3.55h-1.8v-4.68a14.93 14.93 0 1 0-29.86 0v4.68h-1.8a3.55 3.55 0 0 0-3.55 3.55v23.3a3.56 3.56 0 0 0 3.55 3.56h33.46a3.56 3.56 0 0 0 3.51-3.56z"/><path class="cls-15" d="M308.8 80.96 307.76 82l1.04 1.03-.71.71-1.04-1.04-1.03 1.04-.71-.71 1.03-1.03-1.03-1.04.71-.71 1.03 1.04 1.04-1.04.71.71zm-29.09.54h3.02v1h-3.02z"/><path d="M251.58 124.4h-1.8v-4.68a14.93 14.93 0 1 0-29.86 0v4.68h-1.8a3.55 3.55 0 0 0-3.55 3.55v23.35a3.56 3.56 0 0 0 3.55 3.56h33.46a3.56 3.56 0 0 0 3.55-3.56V128a3.55 3.55 0 0 0-3.55-3.6zm-15.3 15.33V146a.37.37 0 0 1-.37.36h-2.12a.36.36 0 0 1-.36-.36v-6.26a3.76 3.76 0 1 1 2.85 0zM224.9 124.4v-4.68a9.95 9.95 0 0 1 19.9 0v4.68z" style="fill:#fff"/><path class="cls-14" d="M244.8 119.72v4.68h-19.9v-4.68a9.95 9.95 0 0 1 19.9 0z"/><path class="cls-15" d="M295.87 80.5h-2.51v1h-1.1v2h2.5v-1h1.11zm-1.41 2.69h-1.9v-1.38h1.9zm1.11-1h-.81v-.65h-1.1v-.73h1.91z"/><path d="M203.58 147.25c.06.14.44-.84.44-.84l.09.84.6-.58.26.7.35-.84s.08.15.35.72c.11-.26.8-.22 1.61-.72a3.06 3.06 0 0 0 1-2.59c-.1-.58-.66-1.12-.34-1.48a.67.67 0 0 1 .92-.15c.23.14.49-.17 1.44-.49l.25-.07c1.16-.34 1.06-1.15 1.24-2.29s-1.16-2.56-2.24-3.51a7 7 0 0 0-5.42-1.06c-1.58.49-3.16.9-3.77 4.44a7.67 7.67 0 0 0 1.52 6.37 3.92 3.92 0 0 0 1.18.88 1 1 0 0 1 .52.67z"/><path class="cls-17" d="M206.25 232.22c-.33-.73-.59-1.63.55-1.13h.1v-5.25a4.21 4.21 0 0 0-.93.73 31.18 31.18 0 0 0-2.71 2.81c0-.21.05-.39.06-.48 0-.33-.46-.71-.89-.18s-2.71.62-4.06.38a2.8 2.8 0 0 1-.48-.12c-1.18-.39-.84.49-.45 1.18s.44 1.67.57 3.61 2.26 2.4 3.85 2.57c1.4.16 2.37-1.3 4.56-3.27a3.14 3.14 0 0 0-.17-.85z"/><path class="cls-17" d="M206.47 233.11a24.12 24.12 0 0 1 0 2.76c-.06 1.95 2 2.59 3.59 2.92s2.77-1.47 5.85-3.56 5.51-6 4.48-7c-.94-.63-3.41-.22-5.32 1.25a31.79 31.79 0 0 0-3 2.54c0-.21.09-.38.11-.47.06-.33-.39-.75-.88-.26s-3.24.34-4.44-.12h-.1c-1.14-.5-.88.4-.55 1.13a3.14 3.14 0 0 1 .26.81z"/><path d="m197.24 182.41 1.23 23.46-.05 23.27c1.35.24 3.67.09 4.06-.38l1.12-21.62 1.08-17a.71.71 0 0 1 .77-.68.8.8 0 0 1 .47.22.72.72 0 0 1 .2.47l1 18.93-.12 16.8v5.25c1.2.46 4 .59 4.44.12l1.79-23.48.34-23c-3.87.67-14.38-2.09-16.33-2.36z" style="fill:#398eed"/><path class="cls-17" d="m188.66 150.58-.34 7.12 7.18.81s.13 18.8-1.51 23c.89.42 15.71 3.89 19.48 3.27a3.78 3.78 0 0 0 1.09-.3c-.29-1.68 1.18-22.4 1.18-22.4s3.08 2.26 4.81 3.58a4.68 4.68 0 0 0 .79-1.43 28.57 28.57 0 0 0 1.07-5.74l-5.86-5.49a3.32 3.32 0 0 0-1.75-.88 39.71 39.71 0 0 1-5.66-1.29c-.81 1-6 1.61-7.16-.22z"/><path class="cls-19" d="m221.35 164.27 2 1.71a1 1 0 0 0 1.46-.22l8.65-13.51s2.82-2.35 2.8-3.82c0-1-1.52-2.37-1.78-2.42s.17-1.35.2-2.8-.49-1.7-1-1.7 0 .48 0 2-1.77 6.11-2.28 7L224 160l-1.58-1.5a28.57 28.57 0 0 1-1.07 5.77zm-13.09-20.33a3.06 3.06 0 0 1-1 2.59c-.81.5-1.5.46-1.61.72-.27-.57-.35-.72-.35-.72l-.35.84-.26-.7-.6.58-.09-.84s-.38 1-.44.84a1 1 0 0 0-.54-.67c.13 1.4.49 3.77-.49 3.92l-.57.08c1.14 1.83 6.35 1.24 7.16.22a2.47 2.47 0 0 1-1.23-.71c-.63-1.08-.82-3 0-3.46a6.31 6.31 0 0 0 1.85-2.33 4.7 4.7 0 0 0 .2-1.41c0-.53.15-.54.29-1.06-.95.32-1.21.63-1.44.49a.67.67 0 0 0-.92.15c-.27.35.29.89.39 1.47z"/><path d="M203 146.58a3.92 3.92 0 0 1-1.18-.88 7.67 7.67 0 0 1-1.52-6.37c.61-3.54 2.19-4 3.77-4.44a7 7 0 0 1 5.42 1.06c1.08 1 2.38 2.4 2.24 3.51s-.08 1.95-1.24 2.29l-.25.07c-.95.32-1.21.63-1.44.49a.67.67 0 0 0-.92.15c-.32.36.24.9.34 1.48a3.06 3.06 0 0 1-1 2.59c-.81.5-1.5.46-1.61.72-.27-.57-.35-.72-.35-.72l-.35.84-.26-.7-.6.58-.09-.84s-.38 1-.44.84a1 1 0 0 0-.52-.67z" style="stroke:#000;stroke-width:.23px;fill:none;stroke-miterlimit:10"/><path d="M201.91 236.38c-1.21-.13-2.74-.42-3.45-1.42-.05.94 0 .9 1.1 1.43s2.77 1.15 3.81.39a33.66 33.66 0 0 0 3.14-3.06v-.6c-2.23 1.96-3.2 3.42-4.6 3.26zm6.78 2.62a5.08 5.08 0 0 0 3 .08c1.05-.24 3-2.7 4.28-3.43a15.2 15.2 0 0 0 4.39-4.7c1.09-1.81.54-2.25.19-2.48.44 1.36-1.84 4.8-4.67 6.73-3.08 2.09-4.29 3.88-5.85 3.56-1.23-.26-2.78-.71-3.36-1.85-.25 1.54 1.03 1.76 2.02 2.09z" style="fill:#ebfcff"/><path d="M206.9 231.13h-.1c-1.14-.5-.88.4-.55 1.13a3.14 3.14 0 0 1 .22.89m6.17-.01c-.72.2-.64-.59-.53-1.16m-8.17-1.46c-.69.27-.69-.52-.63-1.1" style="stroke:#e49056;stroke-width:.26px;fill:none;stroke-miterlimit:10"/><path d="M220.58 228.5c.35.23.9.67-.19 2.48a15.2 15.2 0 0 1-4.39 4.7c-1.31.73-3.23 3.19-4.28 3.43a5.08 5.08 0 0 1-3-.08c-1-.36-2.27-.58-2-2.09m-8.26-1.94c-.05.94 0 .9 1.1 1.43s2.77 1.15 3.81.39a33.66 33.66 0 0 0 3.14-3.06" style="stroke:#4986d9;stroke-width:.13px;fill:none;stroke-miterlimit:10"/><path class="cls-19" d="M202.57 136.72c.21.61.72 2.29-.44 2.73s-2.64 1.42-2.7 1.85-.2 1.06-.67 1.27l-1.31-1.46c.69-1.08 3.37-4.75 3.73-4.77s1.18-.22 1.39.38zm-5.12 4.39 1.31 1.46-7.79 8h-2.31l-4.32.11a2.25 2.25 0 0 0-.74.12z"/><path class="cls-19" d="m188.66 150.58-.23 4.95-4.31-.43a2.21 2.21 0 0 1-1.42-.71 2.17 2.17 0 0 1-.58-1.47 2.22 2.22 0 0 1 1.48-2.11 2.25 2.25 0 0 1 .74-.12z"/></g></g></svg>