<svg xmlns="http://www.w3.org/2000/svg" xmlns:xlink="http://www.w3.org/1999/xlink" viewBox="0 0 456.01 262.12"><defs><linearGradient id="未命名的渐变_26" x1="1" y1="91.35" x2="1" y2="181.12" gradientUnits="userSpaceOnUse"><stop offset="0" stop-color="#81cfff"/><stop offset="1" stop-color="#5ecfff" stop-opacity="0"/></linearGradient><linearGradient id="未命名的渐变_26-2" x1="455.01" y1="72.11" x2="455.01" y2="161.88" xlink:href="#未命名的渐变_26"/><linearGradient id="未命名的渐变_26-3" x1="40.9" y1="143.88" x2="40.9" y2="199.51" xlink:href="#未命名的渐变_26"/><linearGradient id="未命名的渐变_26-4" x1="64.97" y1="95.36" x2="64.97" y2="123.17" xlink:href="#未命名的渐变_26"/><linearGradient id="未命名的渐变_26-5" x1="397.23" y1="104.2" x2="397.23" y2="132.02" xlink:href="#未命名的渐变_26"/><linearGradient id="未命名的渐变_26-6" x1="424.75" y1="133.49" x2="424.75" y2="189.13" xlink:href="#未命名的渐变_26"/><linearGradient id="未命名的渐变_26-7" x1="232.75" y1="224.43" x2="232.75" y2="262.12" xlink:href="#未命名的渐变_26"/><linearGradient id="未命名的渐变_26-8" x1="349.36" y1="26.68" x2="349.36" y2="204.03" xlink:href="#未命名的渐变_26"/><linearGradient id="未命名的渐变_26-9" x1="201.45" y1="55.61" x2="201.45" y2="204.03" xlink:href="#未命名的渐变_26"/><linearGradient id="未命名的渐变_26-10" x1="122.98" y1="26.68" x2="122.98" y2="204.03" xlink:href="#未命名的渐变_26"/><linearGradient id="未命名的渐变_26-11" x1="273.51" y1="0" x2="273.51" y2="209.54" xlink:href="#未命名的渐变_26"/><clipPath id="clip-path"><path d="M132.71 143.17v-8.64c1.84-.15 3.62-.2 5.32-.2s3.18 0 4.65.11c7.58.36 16.62 3.36 22.3 8.63s7.84 11.57 7.84 20.58v8.64c0-9-2.17-15.32-7.84-20.58s-14.72-8.27-22.3-8.63c-1.47-.07-3-.12-4.65-.12s-3.48.04-5.32.21z" style="fill:none"/></clipPath><style>.cls-21,.cls-22{fill:none;stroke-miterlimit:10}.cls-14{fill:#67c8ff}.cls-15{fill:#8cd7ff}.cls-16{isolation:isolate}.cls-19{fill:#ebfcff}.cls-20{fill:#ffb056}.cls-21{stroke:#e49056;stroke-width:.25px}.cls-22{stroke:#4986d9;stroke-width:.13px}.cls-25{fill:#ffeed2}.cls-27{fill:#fff}</style></defs><g id="图层_2" data-name="图层 2"><g id="图层_1-2" data-name="图层 1"><path style="stroke:url(#未命名的渐变_26);stroke-width:2px;stroke-miterlimit:10;fill:none" d="M1 91.35v89.77"/><path style="stroke:url(#未命名的渐变_26-2);stroke-width:2px;stroke-miterlimit:10;fill:none" d="M455.01 72.11v89.77"/><path style="stroke:url(#未命名的渐变_26-3);stroke-width:2px;stroke-miterlimit:10;fill:none" d="M40.9 143.88v55.63"/><path style="stroke:url(#未命名的渐变_26-4);stroke-width:2px;stroke-miterlimit:10;fill:none" d="M64.97 95.36v27.81"/><path style="stroke:url(#未命名的渐变_26-5);stroke-width:2px;stroke-miterlimit:10;fill:none" d="M397.23 104.2v27.82"/><path style="stroke:url(#未命名的渐变_26-6);stroke-width:2px;stroke-miterlimit:10;fill:none" d="M424.75 133.49v55.64"/><path d="M412.28 262.12c-23-23-61-37.69-179.53-37.69S76.24 239.1 53.21 262.12z" style="fill:url(#未命名的渐变_26-7);opacity:.4"/><g style="opacity:.7"><path d="M380.66 26.68h-62.59a2.71 2.71 0 0 0-2.82 2.59v172.17a2.71 2.71 0 0 0 2.82 2.59h62.59a2.72 2.72 0 0 0 2.82-2.59V29.27a2.72 2.72 0 0 0-2.82-2.59zM328.3 147a.9.9 0 0 1-.95.87h-3.6a.9.9 0 0 1-.95-.87v-19.73a.91.91 0 0 1 .95-.87h3.6a.91.91 0 0 1 .95.87zm0-30.23a.91.91 0 0 1-.95.87h-3.6a.91.91 0 0 1-.95-.87V97a.91.91 0 0 1 .95-.87h3.6a.91.91 0 0 1 .95.87zm0-30.24a.91.91 0 0 1-.95.87h-3.6a.91.91 0 0 1-.95-.87V66.8a.91.91 0 0 1 .95-.87h3.6a.91.91 0 0 1 .95.87zm0-30.24a.91.91 0 0 1-.95.87h-3.6a.91.91 0 0 1-.95-.87V36.56a.91.91 0 0 1 .95-.87h3.6a.91.91 0 0 1 .95.87zM340 147a.9.9 0 0 1-.94.87h-3.61a.91.91 0 0 1-.95-.87v-19.73a.92.92 0 0 1 .95-.87h3.61a.91.91 0 0 1 .94.87zm0-30.23a.91.91 0 0 1-.94.87h-3.61a.92.92 0 0 1-.95-.87V97a.92.92 0 0 1 .95-.87h3.61a.91.91 0 0 1 .94.87zm0-30.24a.91.91 0 0 1-.94.87h-3.61a.92.92 0 0 1-.95-.87V66.8a.92.92 0 0 1 .95-.87h3.61a.91.91 0 0 1 .94.87zm0-30.24a.91.91 0 0 1-.94.87h-3.61a.92.92 0 0 1-.95-.87V36.56a.92.92 0 0 1 .95-.87h3.61a.91.91 0 0 1 .94.87zM351.7 147a.9.9 0 0 1-.94.87h-3.61a.9.9 0 0 1-.94-.87v-19.73a.91.91 0 0 1 .94-.87h3.61a.91.91 0 0 1 .94.87zm0-30.23a.91.91 0 0 1-.94.87h-3.61a.91.91 0 0 1-.94-.87V97a.91.91 0 0 1 .94-.87h3.61a.91.91 0 0 1 .94.87zm0-30.24a.91.91 0 0 1-.94.87h-3.61a.91.91 0 0 1-.94-.87V66.8a.91.91 0 0 1 .94-.87h3.61a.91.91 0 0 1 .94.87zm0-30.24a.91.91 0 0 1-.94.87h-3.61a.91.91 0 0 1-.94-.87V36.56a.91.91 0 0 1 .94-.87h3.61a.91.91 0 0 1 .94.87zM363.4 147a.9.9 0 0 1-.94.87h-3.61a.9.9 0 0 1-.94-.87v-19.73a.91.91 0 0 1 .94-.87h3.61a.91.91 0 0 1 .94.87zm0-30.23a.91.91 0 0 1-.94.87h-3.61a.91.91 0 0 1-.94-.87V97a.91.91 0 0 1 .94-.87h3.61a.91.91 0 0 1 .94.87zm0-30.24a.91.91 0 0 1-.94.87h-3.61a.91.91 0 0 1-.94-.87V66.8a.91.91 0 0 1 .94-.87h3.61a.91.91 0 0 1 .94.87zm0-30.24a.91.91 0 0 1-.94.87h-3.61a.91.91 0 0 1-.94-.87V36.56a.91.91 0 0 1 .94-.87h3.61a.91.91 0 0 1 .94.87zM375.11 147a.91.91 0 0 1-.95.87h-3.61a.9.9 0 0 1-.94-.87v-19.73a.91.91 0 0 1 .94-.87h3.61a.92.92 0 0 1 .95.87zm0-30.23a.92.92 0 0 1-.95.87h-3.61a.91.91 0 0 1-.94-.87V97a.91.91 0 0 1 .94-.87h3.61a.92.92 0 0 1 .95.87zm0-30.24a.92.92 0 0 1-.95.87h-3.61a.91.91 0 0 1-.94-.87V66.8a.91.91 0 0 1 .94-.87h3.61a.92.92 0 0 1 .95.87zm0-30.24a.92.92 0 0 1-.95.87h-3.61a.91.91 0 0 1-.94-.87V36.56a.91.91 0 0 1 .94-.87h3.61a.92.92 0 0 1 .95.87z" style="fill:url(#未命名的渐变_26-8);opacity:.4"/><path d="M231.1 55.61h-59.3a2.71 2.71 0 0 0-2.8 2.59v143.24a2.71 2.71 0 0 0 2.8 2.56h59.3a2.71 2.71 0 0 0 2.82-2.59V58.2a2.71 2.71 0 0 0-2.82-2.59zm-48.63 103.76a1.16 1.16 0 0 1-1.2 1.11h-5.4a1.16 1.16 0 0 1-1.2-1.11v-5.22a1.15 1.15 0 0 1 1.2-1.1h5.4a1.15 1.15 0 0 1 1.2 1.1zm0-12.88a1.15 1.15 0 0 1-1.2 1.1h-5.4a1.15 1.15 0 0 1-1.2-1.1v-5.22a1.16 1.16 0 0 1 1.2-1.11h5.4a1.16 1.16 0 0 1 1.2 1.11zm0-12.89a1.16 1.16 0 0 1-1.2 1.11h-5.4a1.16 1.16 0 0 1-1.2-1.11v-5.22a1.15 1.15 0 0 1 1.2-1.1h5.4a1.15 1.15 0 0 1 1.2 1.1zm0-12.88a1.15 1.15 0 0 1-1.2 1.1h-5.4a1.15 1.15 0 0 1-1.2-1.1v-5.22a1.16 1.16 0 0 1 1.2-1.11h5.4a1.16 1.16 0 0 1 1.2 1.11zm0-12.89a1.16 1.16 0 0 1-1.2 1.11h-5.4a1.16 1.16 0 0 1-1.2-1.11v-5.21a1.15 1.15 0 0 1 1.2-1.11h5.4a1.15 1.15 0 0 1 1.2 1.11zm0-12.88a1.15 1.15 0 0 1-1.2 1.1h-5.4a1.15 1.15 0 0 1-1.2-1.1v-5.22a1.16 1.16 0 0 1 1.2-1.11h5.4a1.16 1.16 0 0 1 1.2 1.11zm0-12.89a1.16 1.16 0 0 1-1.2 1.11h-5.4a1.16 1.16 0 0 1-1.2-1.11v-5.21a1.15 1.15 0 0 1 1.2-1.11h5.4a1.15 1.15 0 0 1 1.2 1.11zm0-12.88a1.15 1.15 0 0 1-1.2 1.1h-5.4a1.15 1.15 0 0 1-1.2-1.1V64a1.16 1.16 0 0 1 1.2-1.11h5.4a1.16 1.16 0 0 1 1.2 1.11zm10.08 90.19a1.16 1.16 0 0 1-1.2 1.11H186a1.16 1.16 0 0 1-1.21-1.11v-5.22a1.16 1.16 0 0 1 1.21-1.1h5.4a1.15 1.15 0 0 1 1.2 1.1zm0-12.88a1.15 1.15 0 0 1-1.2 1.1H186a1.16 1.16 0 0 1-1.21-1.1v-5.22a1.16 1.16 0 0 1 1.21-1.11h5.4a1.16 1.16 0 0 1 1.2 1.11zm0-12.89a1.16 1.16 0 0 1-1.2 1.11H186a1.16 1.16 0 0 1-1.21-1.11v-5.22a1.16 1.16 0 0 1 1.21-1.1h5.4a1.15 1.15 0 0 1 1.2 1.1zm0-12.88a1.15 1.15 0 0 1-1.2 1.1H186a1.16 1.16 0 0 1-1.21-1.1v-5.22a1.16 1.16 0 0 1 1.21-1.11h5.4a1.16 1.16 0 0 1 1.2 1.11zm0-12.89a1.16 1.16 0 0 1-1.2 1.11H186a1.16 1.16 0 0 1-1.21-1.11v-5.21a1.16 1.16 0 0 1 1.21-1.11h5.4a1.15 1.15 0 0 1 1.2 1.11zm0-12.88a1.15 1.15 0 0 1-1.2 1.1H186a1.16 1.16 0 0 1-1.21-1.1v-5.22a1.16 1.16 0 0 1 1.21-1.11h5.4a1.16 1.16 0 0 1 1.2 1.11zm0-12.89a1.16 1.16 0 0 1-1.2 1.11H186a1.16 1.16 0 0 1-1.21-1.11v-5.21a1.16 1.16 0 0 1 1.21-1.11h5.4a1.15 1.15 0 0 1 1.2 1.11zm0-12.88a1.15 1.15 0 0 1-1.2 1.1H186a1.16 1.16 0 0 1-1.21-1.1V64a1.16 1.16 0 0 1 1.21-1.15h5.4a1.16 1.16 0 0 1 1.2 1.11zm10.08 90.19a1.16 1.16 0 0 1-1.21 1.11H196a1.16 1.16 0 0 1-1.2-1.11v-5.22a1.15 1.15 0 0 1 1.2-1.1h5.4a1.16 1.16 0 0 1 1.21 1.1zm0-12.88a1.16 1.16 0 0 1-1.21 1.1H196a1.15 1.15 0 0 1-1.2-1.1v-5.22a1.16 1.16 0 0 1 1.2-1.11h5.4a1.16 1.16 0 0 1 1.21 1.11zm0-12.89a1.16 1.16 0 0 1-1.21 1.11H196a1.16 1.16 0 0 1-1.2-1.11v-5.22a1.15 1.15 0 0 1 1.2-1.1h5.4a1.16 1.16 0 0 1 1.21 1.1zm0-12.88a1.16 1.16 0 0 1-1.21 1.1H196a1.15 1.15 0 0 1-1.2-1.1v-5.22a1.16 1.16 0 0 1 1.2-1.11h5.4a1.16 1.16 0 0 1 1.21 1.11zm0-12.89a1.16 1.16 0 0 1-1.21 1.11H196a1.16 1.16 0 0 1-1.2-1.11v-5.21a1.15 1.15 0 0 1 1.2-1.11h5.4a1.16 1.16 0 0 1 1.21 1.11zm0-12.88a1.16 1.16 0 0 1-1.21 1.1H196a1.15 1.15 0 0 1-1.2-1.1v-5.22a1.16 1.16 0 0 1 1.2-1.11h5.4a1.16 1.16 0 0 1 1.21 1.11zm0-12.89a1.16 1.16 0 0 1-1.21 1.11H196a1.16 1.16 0 0 1-1.2-1.11v-5.21a1.15 1.15 0 0 1 1.2-1.11h5.4a1.16 1.16 0 0 1 1.21 1.11zm0-12.88a1.16 1.16 0 0 1-1.21 1.1H196a1.15 1.15 0 0 1-1.2-1.1V64a1.16 1.16 0 0 1 1.2-1.11h5.4a1.16 1.16 0 0 1 1.23 1.11zm25.21 90.19a1.16 1.16 0 0 1-1.2 1.11H206.1a1.16 1.16 0 0 1-1.2-1.11v-5.22a1.15 1.15 0 0 1 1.2-1.1h20.54a1.15 1.15 0 0 1 1.2 1.1zm0-12.88a1.15 1.15 0 0 1-1.2 1.1H206.1a1.15 1.15 0 0 1-1.2-1.1v-5.22a1.16 1.16 0 0 1 1.2-1.11h20.54a1.16 1.16 0 0 1 1.2 1.11zm0-12.89a1.16 1.16 0 0 1-1.2 1.11H206.1a1.16 1.16 0 0 1-1.2-1.11v-5.22a1.15 1.15 0 0 1 1.2-1.1h20.54a1.15 1.15 0 0 1 1.2 1.1zm0-12.88a1.15 1.15 0 0 1-1.2 1.1H206.1a1.15 1.15 0 0 1-1.2-1.1v-5.22a1.16 1.16 0 0 1 1.2-1.11h20.54a1.16 1.16 0 0 1 1.2 1.11zm0-12.89a1.16 1.16 0 0 1-1.2 1.11H206.1a1.16 1.16 0 0 1-1.2-1.11v-5.21a1.15 1.15 0 0 1 1.2-1.11h20.54a1.15 1.15 0 0 1 1.2 1.11zm0-12.88a1.15 1.15 0 0 1-1.2 1.1H206.1a1.15 1.15 0 0 1-1.2-1.1v-5.22a1.16 1.16 0 0 1 1.2-1.11h20.54a1.16 1.16 0 0 1 1.2 1.11zm0-12.89a1.16 1.16 0 0 1-1.2 1.11H206.1a1.16 1.16 0 0 1-1.2-1.11v-5.21a1.15 1.15 0 0 1 1.2-1.11h20.54a1.15 1.15 0 0 1 1.2 1.11zm0-12.88a1.15 1.15 0 0 1-1.2 1.1H206.1a1.15 1.15 0 0 1-1.2-1.1V64a1.16 1.16 0 0 1 1.2-1.11h20.54a1.16 1.16 0 0 1 1.2 1.11z" style="fill:url(#未命名的渐变_26-9);opacity:.4"/><path d="M161.13 26.68h-76.3A2.71 2.71 0 0 0 82 29.27v172.17a2.71 2.71 0 0 0 2.83 2.56h76.3a2.71 2.71 0 0 0 2.82-2.59V29.27a2.71 2.71 0 0 0-2.82-2.59zM154.34 161a1.16 1.16 0 0 1-1.2 1.11H92.83a1.16 1.16 0 0 1-1.21-1.11v-5.21a1.16 1.16 0 0 1 1.21-1.11h60.31a1.15 1.15 0 0 1 1.2 1.11zm0-14.67a1.15 1.15 0 0 1-1.2 1.1H92.83a1.16 1.16 0 0 1-1.21-1.1v-5.22a1.16 1.16 0 0 1 1.21-1.11h60.31a1.16 1.16 0 0 1 1.2 1.11zm0-14.68a1.16 1.16 0 0 1-1.2 1.11H92.83a1.16 1.16 0 0 1-1.21-1.11v-5.22a1.16 1.16 0 0 1 1.21-1.1h60.31a1.15 1.15 0 0 1 1.2 1.1zm0-14.68a1.16 1.16 0 0 1-1.2 1.11H92.83a1.16 1.16 0 0 1-1.21-1.11v-5.21a1.16 1.16 0 0 1 1.21-1.11h60.31a1.15 1.15 0 0 1 1.2 1.11zm0-14.67a1.15 1.15 0 0 1-1.2 1.1H92.83a1.16 1.16 0 0 1-1.21-1.1V97a1.16 1.16 0 0 1 1.21-1.11h60.31a1.16 1.16 0 0 1 1.2 1.11zm0-14.68a1.16 1.16 0 0 1-1.2 1.11H92.83a1.16 1.16 0 0 1-1.21-1.11v-5.27a1.16 1.16 0 0 1 1.21-1.1h60.31a1.15 1.15 0 0 1 1.2 1.1zm0-14.68a1.16 1.16 0 0 1-1.2 1.11H92.83a1.16 1.16 0 0 1-1.21-1.11v-5.26a1.16 1.16 0 0 1 1.21-1.11h60.31a1.15 1.15 0 0 1 1.2 1.11zm0-14.67a1.15 1.15 0 0 1-1.2 1.1H92.83a1.16 1.16 0 0 1-1.21-1.1V53a1.16 1.16 0 0 1 1.21-1.11h60.31a1.16 1.16 0 0 1 1.2 1.11zm0-14.68a1.16 1.16 0 0 1-1.2 1.11H92.83a1.16 1.16 0 0 1-1.21-1.11v-5.27a1.16 1.16 0 0 1 1.21-1.1h60.31a1.15 1.15 0 0 1 1.2 1.1z" style="fill:url(#未命名的渐变_26-10);opacity:.4"/><path d="M306.21 0h-65.39a2.51 2.51 0 0 0-2.42 2.59v204.35a2.51 2.51 0 0 0 2.42 2.6h65.39a2.51 2.51 0 0 0 2.41-2.6V2.59A2.51 2.51 0 0 0 306.21 0zm-5.82 134.28a1.06 1.06 0 0 1-1 1.1h-51.72a1.06 1.06 0 0 1-1-1.1v-5.22a1.07 1.07 0 0 1 1-1.11h51.69a1.07 1.07 0 0 1 1 1.11zm0-14.68a1.07 1.07 0 0 1-1 1.11h-51.72a1.07 1.07 0 0 1-1-1.11v-5.22a1.06 1.06 0 0 1 1-1.1h51.69a1.06 1.06 0 0 1 1 1.1zm0-14.68a1.07 1.07 0 0 1-1 1.11h-51.72a1.07 1.07 0 0 1-1-1.11v-5.21a1.07 1.07 0 0 1 1-1.11h51.69a1.07 1.07 0 0 1 1 1.11zm0-14.67a1.06 1.06 0 0 1-1 1.1h-51.72a1.06 1.06 0 0 1-1-1.1V85a1.07 1.07 0 0 1 1-1.11h51.69a1.07 1.07 0 0 1 1 1.11zm0-14.68a1.07 1.07 0 0 1-1 1.11h-51.72a1.07 1.07 0 0 1-1-1.11v-5.22a1.06 1.06 0 0 1 1-1.1h51.69a1.06 1.06 0 0 1 1 1.1zm0-14.68a1.07 1.07 0 0 1-1 1.11h-51.72a1.07 1.07 0 0 1-1-1.11v-5.21a1.07 1.07 0 0 1 1-1.11h51.69a1.07 1.07 0 0 1 1 1.11zm0-14.67a1.06 1.06 0 0 1-1 1.1h-51.72a1.06 1.06 0 0 1-1-1.1V41a1.07 1.07 0 0 1 1-1.11h51.69a1.07 1.07 0 0 1 1 1.11zm0-14.68a1.07 1.07 0 0 1-1 1.11h-51.72a1.07 1.07 0 0 1-1-1.11v-5.22a1.06 1.06 0 0 1 1-1.1h51.69a1.06 1.06 0 0 1 1 1.1zm0-14.68a1.07 1.07 0 0 1-1 1.11h-51.72a1.07 1.07 0 0 1-1-1.11v-5.21a1.07 1.07 0 0 1 1-1.11h51.69a1.07 1.07 0 0 1 1 1.11z" style="fill:url(#未命名的渐变_26-11);opacity:.4"/></g><path class="cls-14" d="M240.54 164.63c-1 5.12-2.63 9.07-5 11.82-.27.31-.56.6-.85.88l-.27.24c-.19.17-.39.33-.6.49l-.55.4-.6.38-.38.22q-.42.23-.87.42l-.19.09c-.37.15-.74.28-1.13.4l-.3.08c-.31.09-.63.16-1 .23l-.32.06q-.64.12-1.32.18H227c-.44 0-.88.06-1.33.06s-.9 0-1.34-.06l-.71-.08-.76-.1h-.21a10.34 10.34 0 0 1-1.16-.27c-.25-.07-.48-.16-.72-.24l-.55-.19c-.24-.1-.47-.22-.7-.33l-.48-.23-.21-.13c-.28-.16-.56-.33-.82-.51s-.41-.32-.61-.48a5 5 0 0 1-.43-.34c-.21-.18-.41-.39-.61-.59l-.38-.38c-.27-.3-.52-.62-.77-.94l-.17-.22q-.36-.5-.69-1l-.1-.17c-.21-.34-.41-.68-.6-1.05l-.09-.18c-.2-.39-.4-.79-.58-1.21l-.14-.32c-.17-.4-.33-.81-.49-1.23a.78.78 0 0 0-.05-.14c-.17-.48-.33-1-.48-1.48-.05-.14-.08-.28-.13-.42-.11-.4-.22-.79-.32-1.2 0-.16-.08-.31-.11-.47-.13-.54-.26-1.1-.37-1.68s-.23-1.24-.34-1.89v-.15c-.1-.61-.19-1.25-.27-1.9 0-.16-.05-.34-.07-.51-.07-.56-.13-1.14-.2-1.73v-.34c0-.33-.06-.69-.09-1-.05-.49-.09-1-.13-1.48s0-.74-.07-1.12-.07-1-.09-1.5l-.06-1.22c0-.51 0-1-.06-1.55s0-.86 0-1.3v-4.18 16.97c0 .53 0 1 .06 1.55l.06 1.22c0 .51.06 1 .09 1.5s0 .75.07 1.12.08 1 .13 1.48c0 .3 0 .61.07.9v.47c.07.59.13 1.17.2 1.73 0 .17 0 .34.07.51.08.65.17 1.29.27 1.9v.14c.07.41.14.82.21 1.21 0 .23.08.46.13.69.11.58.24 1.13.37 1.68 0 .16.07.31.11.46s.09.38.14.56l.18.64c0 .15.08.29.13.43.14.49.3 1 .46 1.42v.05a.88.88 0 0 1 .05.15c.16.42.32.83.49 1.23 0 .11.09.21.14.31s.07.18.11.26c.15.33.31.65.47 1l.09.18c.1.18.19.37.29.54s.21.34.31.51l.1.17c.18.28.35.55.54.81l.15.2.17.22a12.06 12.06 0 0 0 .77.94l.05.07.34.32c.19.2.39.4.6.59a5 5 0 0 0 .43.34c.2.16.4.33.61.47l.07.06c.24.17.49.31.75.46l.21.12c.15.08.31.14.46.21a6.36 6.36 0 0 0 .7.33c.18.08.37.13.55.19s.47.18.72.25c.36.1.74.19 1.12.26h.4l.57.07.71.08h2.92c.39 0 .77-.09 1.13-.15h.17l.32-.06.52-.11c.15 0 .29-.08.44-.12l.3-.09h.18a9.44 9.44 0 0 0 .89-.32h.06l.19-.09c.21-.09.43-.18.63-.29l.24-.14c.13-.06.25-.14.38-.21s.21-.11.31-.18l.29-.2.55-.4c.08-.07.17-.12.25-.18l.35-.31.27-.25a11.68 11.68 0 0 0 .85-.87q3.57-4.14 5-11.82A112.54 112.54 0 0 0 242 156v-11.53a112.54 112.54 0 0 1-1.46 20.16z"/><path class="cls-14" d="M260.82 144.09v-2.77c0-.49 0-1-.06-1.46v-.91c0-.55-.07-1.08-.1-1.62 0-.22 0-.45-.05-.68a97.673 97.673 0 0 0-.39-4.09c0-.19-.05-.38-.07-.57l-.18-1.28-.09-.66c-.06-.39-.12-.78-.19-1.16 0-.21-.07-.42-.11-.63s0-.23-.06-.35-.05-.26-.08-.4c-.1-.55-.21-1.1-.33-1.64 0-.21-.09-.42-.13-.63-.17-.71-.33-1.4-.51-2.08l-.51-1.77-.18-.56c-.13-.38-.25-.76-.38-1.13a1.72 1.72 0 0 1-.07-.21c-.06-.17-.13-.33-.19-.5l-.3-.79c-.1-.24-.19-.47-.29-.7l-.32-.75-.11-.26c-.13-.29-.27-.57-.41-.85-.34-.69-.69-1.35-1-2l-.14-.25c0-.1-.11-.19-.17-.29l-.6-1-.35-.55c-.23-.37-.48-.72-.72-1.08-.07-.1-.14-.22-.22-.32v-.06c-.36-.52-.74-1-1.13-1.5l-.3-.37c-.3-.37-.61-.72-.92-1.07l-.2-.24-.17-.17c-.45-.48-.9-1-1.37-1.4s-.67-.62-1-.92l-.32-.27-.75-.61-.36-.29-.81-.6-.29-.21-.1-.06-.42-.28c-.27-.17-.53-.35-.8-.51s-.37-.23-.56-.34l-.78-.45-.18-.1-.3-.14c-.41-.22-.83-.42-1.25-.62l-.49-.23c-.56-.25-1.13-.49-1.72-.71s-.91-.32-1.38-.47l-.45-.14c-.25-.08-.49-.16-.74-.22h-.18c-.48-.13-1-.26-1.48-.37l-.25-.06c-.58-.12-1.18-.23-1.78-.33h-.12l-.58-.07-1-.14-.75-.07c-.32 0-.65-.07-1-.09h-5.62c-.47 0-.94 0-1.4.09h-.07l-1.34.14-.41.06-.91.13h-.13l-.41.08-.7.12-.55.12-.66.14h-.2l-.37.09-.6.16-.56.16-.59.17-.21.07-.33.11-.59.2-.53.2-.58.21a1.57 1.57 0 0 1-.23.09l-.27.12-.62.27-.49.22-.6.29-.29.14-.17.09-.77.41-.35.2c-.37.21-.73.42-1.09.65-.57.36-1.12.75-1.67 1.15l-.48.37-.66.5-.47.42-.56.48c-.36.33-.72.67-1.07 1l-.44.43c-.48.51-1 1-1.4 1.56l-.17.22c-.39.48-.77 1-1.13 1.47-.14.19-.27.39-.41.59-.28.4-.55.81-.81 1.24-.14.22-.28.44-.41.66-.26.45-.51.9-.76 1.36l-.33.62c-.34.67-.67 1.36-1 2.07a54.8 54.8 0 0 0-3.44 13.43 125.91 125.91 0 0 0-1.1 17.57v11.49a125.91 125.91 0 0 1 1.1-17.57 54.8 54.8 0 0 1 3.27-13.48c.31-.72.64-1.4 1-2.07l.33-.63c.25-.46.5-.91.76-1.35.13-.22.27-.44.41-.66.26-.43.53-.84.81-1.25l.41-.58c.36-.51.74-1 1.13-1.47l.17-.22c.45-.54.92-1.06 1.4-1.56.14-.15.29-.29.44-.43.35-.35.71-.69 1.07-1l.56-.49 1.13-.92.48-.36c.56-.41 1.12-.8 1.71-1.17.36-.23.72-.45 1.09-.66l.35-.19.77-.41c.15-.08.3-.16.46-.23l.6-.29.49-.22c.2-.1.41-.18.62-.27l.5-.21.58-.22.53-.19.59-.2.54-.18.59-.17.56-.16.6-.16.57-.14.66-.14.56-.12.68-.13.55-.09.9-.13.42-.06 1.34-.14h.07l1.4-.1h4.58l1 .06 1 .09.75.08 1 .13.7.1c.6.1 1.2.21 1.78.34l.25.06c.5.11 1 .23 1.48.37l.92.26.45.14q.7.23 1.38.48c.59.22 1.16.46 1.72.71l.49.23c.42.19.84.4 1.25.61l.48.25.78.45.56.33.8.52.52.34.29.21.81.6.36.28.75.61.32.28c.34.29.68.6 1 .91s.92.92 1.37 1.41l.37.4c.31.35.62.71.92 1.07l.3.37c.39.49.77 1 1.13 1.5l.27.39c.24.35.49.71.72 1.08l.35.55.6 1c.1.18.2.36.31.54.36.65.71 1.31 1 2 .18.36.35.74.52 1.11s.21.51.32.76l.29.69.3.8c.09.23.17.47.26.71s.25.75.38 1.13l.18.56c.17.57.34 1.16.5 1.76.18.67.34 1.37.51 2.08 0 .21.09.42.13.63.12.54.23 1.08.33 1.64.05.25.1.49.14.75s.08.42.11.63c.07.38.13.77.19 1.16l.09.65.18 1.29c0 .19 0 .38.07.57.07.62.14 1.25.2 1.89s.14 1.47.19 2.22c0 .22 0 .45.05.68 0 .53.07 1.07.1 1.62v.91c0 .48.05 1 .06 1.46v4.43-11.49c.14-.57.13-1.12.13-1.68z"/><path class="cls-15" d="M255.6 127.08q5.23 10.67 5.23 30.18a103.75 103.75 0 0 1-1.38 18.21 40.8 40.8 0 0 1-5.09 13.83 32.63 32.63 0 0 1-12.09 11.75 33.35 33.35 0 0 1-16.5 4.14 32.93 32.93 0 0 1-18.77-5.56 34.21 34.21 0 0 1-12.48-15.37 54.27 54.27 0 0 1-3.12-11.86 92 92 0 0 1-1-14.05 125.91 125.91 0 0 1 1.1-17.57 54.8 54.8 0 0 1 3.5-13.43 30.64 30.64 0 0 1 11.79-14.18q7.73-4.87 18.46-4.88a36.47 36.47 0 0 1 12.85 2.16 29.6 29.6 0 0 1 10.14 6.33 36.27 36.27 0 0 1 7.36 10.3zm-15.06 49A112.54 112.54 0 0 0 242 156a101 101 0 0 0-1.51-19.34q-1.51-7.53-5.09-11.38c-2.39-2.56-5.68-3.84-9.9-3.84q-9.08 0-12.61 8.59t-3.54 26.49a107 107 0 0 0 1.51 19.9q1.52 7.74 5.09 11.72a12.37 12.37 0 0 0 9.69 4q6.31 0 9.9-4.13t5-11.82"/><path class="cls-14" d="M323.79 164.63c-1 5.12-2.63 9.07-5 11.82-.27.31-.56.6-.85.88l-.27.24c-.19.17-.39.33-.6.49l-.55.4-.6.38-.38.22q-.42.23-.87.42l-.19.09c-.37.15-.74.28-1.13.4l-.3.08c-.31.09-.63.16-1 .23l-.32.06q-.64.12-1.32.18h-.23c-.44 0-.88.06-1.33.06s-.9 0-1.34-.06l-.71-.08-.76-.1h-.21a10.34 10.34 0 0 1-1.16-.27c-.25-.07-.48-.16-.72-.24l-.55-.19c-.24-.1-.47-.22-.7-.33l-.48-.23-.21-.13c-.28-.16-.56-.33-.82-.51s-.41-.32-.61-.48a5 5 0 0 1-.43-.34c-.21-.18-.41-.39-.61-.59l-.38-.38c-.27-.3-.52-.62-.77-.94l-.17-.22q-.36-.5-.69-1l-.1-.17c-.21-.34-.41-.68-.6-1.05l-.09-.18c-.2-.39-.4-.79-.58-1.21l-.14-.32q-.26-.6-.48-1.23l-.06-.14c-.17-.48-.33-1-.48-1.48 0-.14-.08-.28-.13-.42-.11-.4-.22-.79-.32-1.2 0-.16-.08-.31-.11-.47-.13-.54-.26-1.1-.37-1.68s-.23-1.24-.34-1.89a.77.77 0 0 0 0-.15c-.1-.61-.19-1.25-.27-1.9 0-.16-.05-.34-.07-.51-.07-.56-.13-1.14-.19-1.73v-.34c0-.33-.06-.69-.09-1-.05-.49-.09-1-.13-1.48s-.05-.74-.07-1.12-.07-1-.09-1.5l-.06-1.22c0-.51 0-1-.06-1.55s0-.86 0-1.3v-4.18 16.97c0 .53 0 1 .06 1.55l.06 1.22c0 .51.06 1 .09 1.5s.05.75.07 1.12.08 1 .13 1.48c0 .3.05.61.07.9v.47c.06.59.12 1.17.19 1.73 0 .17 0 .34.07.51.08.65.17 1.29.27 1.9a.78.78 0 0 1 0 .14c.07.41.14.82.21 1.21 0 .23.08.46.13.69.11.58.24 1.13.37 1.68 0 .16.07.31.11.46s.09.38.14.56l.18.64c.05.15.09.29.13.43.15.49.3 1 .46 1.42v.05l.06.15q.23.63.48 1.23c.05.11.09.21.14.31s.07.18.11.26c.15.33.31.65.47 1l.09.18c.1.18.2.37.3.54l.3.51.1.17.54.81.15.2.17.22a12.06 12.06 0 0 0 .77.94l.06.07c.1.11.22.21.33.32s.39.4.6.59l.43.34c.2.16.4.33.61.47l.07.06c.24.17.5.31.75.46l.21.12c.15.08.31.14.46.21a6.36 6.36 0 0 0 .7.33c.18.08.37.13.55.19s.47.18.72.25c.37.1.74.19 1.12.26h.4l.57.07.71.08h2.92c.39 0 .77-.09 1.13-.15h.17l.32-.06.52-.11c.15 0 .3-.08.44-.12l.3-.09h.18a9.44 9.44 0 0 0 .89-.32h.06l.19-.09c.21-.09.43-.18.63-.29l.24-.14c.13-.06.25-.14.38-.21s.21-.11.31-.18l.29-.2.55-.4c.08-.07.17-.12.25-.18l.35-.31.27-.25a11.68 11.68 0 0 0 .85-.87q3.57-4.14 5-11.82a112.54 112.54 0 0 0 1.59-20.25v-11.53a112.54 112.54 0 0 1-1.45 20.16z"/><path class="cls-14" d="M344.07 144.09v-2.77c0-.49 0-1-.06-1.46v-.91c0-.55-.06-1.08-.1-1.62 0-.22 0-.45-.05-.68-.05-.75-.11-1.49-.19-2.22-.06-.63-.13-1.26-.2-1.87 0-.19-.05-.38-.07-.57l-.18-1.28-.22-.71c-.06-.39-.12-.78-.19-1.16 0-.21-.07-.42-.11-.63s0-.23-.05-.35l-.09-.4c-.1-.55-.21-1.1-.33-1.64 0-.21-.09-.42-.13-.63-.16-.71-.33-1.4-.51-2.08-.16-.6-.34-1.19-.51-1.77l-.18-.56c-.13-.38-.25-.76-.38-1.13a1.72 1.72 0 0 1-.07-.21c-.06-.17-.13-.33-.19-.5l-.3-.79c-.1-.24-.19-.47-.29-.7s-.21-.5-.32-.75l-.11-.26c-.13-.29-.27-.57-.41-.85-.34-.69-.69-1.35-1.05-2l-.14-.25c-.05-.1-.11-.19-.17-.29l-.6-1-.35-.55c-.23-.37-.47-.72-.72-1.08-.07-.1-.14-.22-.22-.32l-.05-.06c-.36-.52-.74-1-1.13-1.5l-.3-.37c-.3-.37-.61-.72-.92-1.07l-.2-.24-.17-.17c-.45-.48-.9-1-1.37-1.4s-.67-.62-1-.92l-.32-.27-.75-.61-.36-.29-.81-.6-.29-.21-.1-.06-.42-.28c-.27-.17-.53-.35-.8-.51s-.37-.23-.56-.34l-.78-.45-.18-.1-.3-.14c-.41-.22-.82-.42-1.25-.62l-.49-.23c-.56-.25-1.13-.49-1.72-.71s-.91-.32-1.37-.47l-.46-.14c-.25-.08-.49-.16-.74-.22h-.17c-.49-.13-1-.26-1.49-.37l-.25-.06c-.58-.12-1.18-.23-1.78-.33h-.12l-.57-.07-1-.14-.75-.07c-.32 0-.65-.07-1-.09h-5.62c-.47 0-.94 0-1.4.09h-.07l-1.34.14-.41.06-.91.13h-.13l-.41.08-.69.12-.56.12-.66.14h-.2l-.37.09-.6.16-.56.16-.59.17-.21.07-.33.11-.59.2-.53.2-.58.21a1.57 1.57 0 0 1-.23.09l-.27.12-.62.27-.49.22-.6.29-.29.14-.17.09-.77.41-.35.2c-.37.21-.73.42-1.09.65-.58.36-1.13.75-1.68 1.15-.16.12-.32.24-.47.37s-.45.33-.66.5l-.48.42c-.19.16-.37.31-.55.48q-.56.5-1.08 1l-.44.43c-.48.51-.95 1-1.4 1.56l-.17.22c-.39.48-.77 1-1.13 1.47-.14.19-.27.39-.41.59-.28.4-.55.81-.81 1.24-.14.22-.28.44-.41.66-.26.45-.51.9-.76 1.36l-.33.62c-.34.67-.67 1.36-1 2.07a54.8 54.8 0 0 0-3.44 13.43 125.91 125.91 0 0 0-1.1 17.57v11.49a125.91 125.91 0 0 1 1.1-17.57 54.8 54.8 0 0 1 3.44-13.43c.31-.72.64-1.4 1-2.07l.33-.63c.25-.46.5-.91.76-1.35.13-.22.27-.44.41-.66.26-.43.53-.84.81-1.25l.41-.58c.36-.51.74-1 1.13-1.47l.17-.22c.45-.54.92-1.06 1.4-1.56.14-.15.29-.29.44-.43q.53-.52 1.08-1l.55-.49c.37-.31.75-.62 1.14-.92l.47-.36c.56-.41 1.12-.8 1.71-1.17.36-.23.72-.45 1.09-.66l.35-.19.77-.41c.15-.08.3-.16.46-.23l.6-.29.49-.22c.2-.1.41-.18.62-.27l.5-.21.58-.22.53-.19.59-.2.54-.18.59-.17.56-.16.6-.16.57-.14.66-.14.56-.12.68-.13.55-.09.9-.13.42-.06 1.34-.14h.07l1.4-.1h4.58l1 .06 1 .09.75.08 1 .13.69.1c.6.1 1.2.21 1.78.34l.25.06c.5.11 1 .23 1.49.37l.91.26.46.14c.46.15.92.31 1.37.48s1.16.46 1.72.71l.49.23c.43.19.84.4 1.25.61l.48.25.78.45.56.33.8.52.52.34.29.21.81.6.36.28.75.61.32.28c.34.29.68.6 1 .91s.92.92 1.37 1.41c.13.13.25.27.37.4.31.35.62.71.92 1.07l.3.37c.39.49.77 1 1.13 1.5l.27.39q.38.52.72 1.08l.35.55.6 1c.1.18.2.36.31.54.36.65.71 1.31 1.05 2 .18.36.35.74.52 1.11s.22.51.32.76l.29.69.3.8c.09.23.17.47.26.71s.25.75.38 1.13l.18.56c.17.57.34 1.16.51 1.76.18.67.35 1.37.51 2.08 0 .21.09.42.13.63.12.54.23 1.08.33 1.64.05.25.1.49.14.75s.08.42.11.63c.07.38.13.77.19 1.16l.09.65.18 1.29c0 .19 0 .38.07.57.07.62.14 1.25.2 1.89s.14 1.47.19 2.22c0 .22 0 .45.05.68 0 .53.07 1.07.1 1.62v.91c0 .48.05 1 .06 1.46v4.43-11.49c.15-.57.14-1.12.14-1.68z"/><path class="cls-15" d="M338.85 127.08q5.23 10.67 5.23 30.18a103.75 103.75 0 0 1-1.38 18.21 40.59 40.59 0 0 1-5.09 13.83 32.63 32.63 0 0 1-12.09 11.75 33.33 33.33 0 0 1-16.5 4.14 32.93 32.93 0 0 1-18.74-5.56 34.12 34.12 0 0 1-12.47-15.37 53.71 53.71 0 0 1-3.13-11.86 92 92 0 0 1-1-14.05 125.91 125.91 0 0 1 1.1-17.57 54.8 54.8 0 0 1 3.44-13.43A30.64 30.64 0 0 1 290 113.17q7.73-4.87 18.46-4.88a36.47 36.47 0 0 1 12.85 2.16 29.6 29.6 0 0 1 10.14 6.33 36.27 36.27 0 0 1 7.4 10.3zm-15.06 49a112.54 112.54 0 0 0 1.45-20.08 101 101 0 0 0-1.51-19.34q-1.51-7.53-5.09-11.38t-9.9-3.84q-9.08 0-12.61 8.59t-3.54 26.49a107 107 0 0 0 1.51 19.9q1.51 7.74 5.09 11.72a12.37 12.37 0 0 0 9.69 4q6.31 0 9.9-4.13t5-11.82"/><path class="cls-14" d="M148 177.15c-.37.32-.77.62-1.18.91l-.38.25c-.31.2-.64.4-1 .59l-.35.19c-.45.24-.91.46-1.39.66l-.14.06c-.44.18-.9.34-1.37.49l-.33.11c-.51.15-1 .29-1.56.41l-.31.06c-.46.1-.94.18-1.43.25l-.44.07c-.57.07-1.17.13-1.78.17s-1.48.08-2.25.08h-1.5c-.71 0-1.41-.08-2.1-.13h-.47q-1-.1-2-.24l-.26-.05a36 36 0 0 1-2.31-.41h-.14c-.77-.16-1.54-.35-2.3-.56l-.63-.17h-.09a7.67 7.67 0 0 0-1.06-.22h-.13a5.39 5.39 0 0 0-.79-.07h-1l-.48.06h-.34l-.59.14h-.19a7.55 7.55 0 0 0-.84.29h-.05l-.11.06a5.75 5.75 0 0 0-.82.42l-.13.06-.08.06a7.11 7.11 0 0 0-.72.5c-.23.18-.45.39-.67.6l-.18.19c-.15.16-.29.32-.43.49l-.18.23q-.21.28-.39.57a1.86 1.86 0 0 0-.11.19 7.68 7.68 0 0 0-.41.81c0 .06 0 .13-.08.2-.08.22-.16.44-.23.67s-.05.2-.08.3-.1.44-.13.66a2.93 2.93 0 0 0 0 .29 7.82 7.82 0 0 0-.06 1V196a7.77 7.77 0 0 1 .06-1 2.5 2.5 0 0 1 0-.29 6.42 6.42 0 0 1 .13-.66c0-.1 0-.2.08-.3s.15-.46.23-.68c0-.06.05-.13.08-.19a9 9 0 0 1 .41-.82 1.74 1.74 0 0 1 .11-.18 5.72 5.72 0 0 1 .39-.57l.18-.24c.14-.16.28-.33.43-.48l.18-.2c.22-.21.44-.41.67-.59.23-.18.47-.34.72-.5l.21-.11a5.75 5.75 0 0 1 .82-.42l.16-.08q.41-.16.84-.3l.22-.05.6-.14.33-.05c.16 0 .32-.05.48-.06h.69a9.77 9.77 0 0 1 1.07.07h.11a9.77 9.77 0 0 1 1.17.25l.41.12.22.06c.76.2 1.53.4 2.3.56h.14c.76.16 1.54.29 2.31.41h.24q1 .15 2 .24h.47c.69.06 1.39.11 2.1.13h1.5c.77 0 1.52 0 2.25-.08h.1q.86-.06 1.68-.18l.44-.06.7-.1.73-.15.31-.06c.45-.1.89-.21 1.32-.34l.24-.07.33-.11c.47-.15.93-.31 1.37-.5l.14-.05h.06c.46-.2.9-.41 1.33-.64l.35-.19.48-.27.49-.33.38-.25a11.57 11.57 0 0 0 1.18-.91 14.07 14.07 0 0 0 5-9.84c0-.58.08-1.18.08-1.79v-8.63a14.53 14.53 0 0 1-5.03 11.77z"/><g class="cls-16"><g class="cls-16" style="clip-path:url(#clip-path)"><path class="cls-14" d="M172.52 158.33A33.35 33.35 0 0 0 172 155a26.4 26.4 0 0 0-.82-2.78 22.25 22.25 0 0 0-1.16-2.69 21.93 21.93 0 0 0-2-3.24 25.52 25.52 0 0 0-3-3.25 29.16 29.16 0 0 0-7.34-4.85 40.29 40.29 0 0 0-6.32-2.35 42.23 42.23 0 0 0-5.08-1.08c-1.21-.17-2.4-.29-3.56-.35l-1.53-.06h-3.12c-1.5 0-3.06 0-4.68.15l-.64.05v8.64h.64c1.61-.19 3.14-.19 4.61-.19q1.6 0 3.12.06l1.53.06c1.16.06 2.35.17 3.56.35a42.23 42.23 0 0 1 5.08 1.08 39.31 39.31 0 0 1 6.32 2.35 29.16 29.16 0 0 1 7.34 4.85 24.86 24.86 0 0 1 3 3.25 21.84 21.84 0 0 1 2 3.23 22.39 22.39 0 0 1 1.16 2.7 26.4 26.4 0 0 1 .82 2.78 32.36 32.36 0 0 1 .57 3.3 43.27 43.27 0 0 1 .3 4.55v-8.64a43.27 43.27 0 0 0-.28-4.59z"/></g></g><path class="cls-14" d="M113.49 159.94v-8.64l3.75-54.5v8.64l-3.75 54.5z"/><path class="cls-14" d="m163.16 105.56.71.16.31.07.29.1.46.17.3.12.37.18c.2.1.39.21.58.32l.25.15a8.15 8.15 0 0 1 .76.55c.23.19.44.39.65.6l.2.22a6.4 6.4 0 0 1 .42.49l.24.31.18.27c.09.13.17.26.25.39l.16.29c0 .09.09.19.14.29s.2.43.28.65l.12.31a4.77 4.77 0 0 1 .15.54c0 .11.07.22.09.33l.09.5.06.37v.94-9.58a.19.19 0 0 1 0-.08 2.93 2.93 0 0 0-.05-.29c0-.17 0-.33-.09-.49s0-.07 0-.1a2.25 2.25 0 0 0-.08-.24 5.44 5.44 0 0 0-.15-.54.57.57 0 0 1 0-.14l-.08-.16c-.08-.23-.18-.44-.28-.66 0 0-.05-.12-.08-.17l-.06-.12c-.05-.1-.11-.19-.16-.28a3.73 3.73 0 0 0-.25-.39l-.18-.28-.13-.18a.69.69 0 0 1-.11-.13 6.4 6.4 0 0 0-.42-.49l-.2-.22a7.21 7.21 0 0 0-.65-.59 8.15 8.15 0 0 0-.76-.55l-.25-.15c-.19-.11-.38-.22-.58-.32l-.14-.08-.23-.09-.3-.13-.46-.17-.29-.09h-.31c-.23-.06-.47-.11-.71-.15h-.35a5.11 5.11 0 0 0-.55 0h-45.08v8.63h45.02l.55.05z"/><path class="cls-15" d="M161.7 105.43a8.48 8.48 0 1 1 0 17h-27.57l-1.42 20.78c1.84-.15 3.62-.21 5.32-.21s3.18 0 4.65.12c7.58.36 16.62 3.36 22.3 8.63s7.84 11.57 7.84 20.58c0 9.94-2.36 16.89-9.22 23.21s-15.9 9.69-27.68 9.69c-6.9 0-12.87 0-18.22-1.53a7.93 7.93 0 0 1 2.3-15.6 8.4 8.4 0 0 1 2.35.34 42 42 0 0 0 11.75 1.65q8.88 0 13.88-4.31t5-11.63q0-15.36-21.36-15.36a165 165 0 0 0-18.19 1.15l3.75-54.51z"/><path class="cls-19" d="M309.61 253.46a4.84 4.84 0 0 1-2.85.39c-1-.12-3.07-2.25-4.39-2.8a14.58 14.58 0 0 1-4.61-4c-1.21-1.6-.74-2.07-.43-2.32-.28 1.32 2.22 4.34 5.08 5.86 3.12 1.66 4.45 3.22 5.88 2.76 1.14-.36 2.55-1 3-2.08.41 1.41-.78 1.73-1.68 2.19z"/><path class="cls-20" d="M311.11 247.65a22.22 22.22 0 0 0 .27 2.61c.25 1.83-1.65 2.65-3.09 3.11s-2.76-1.1-5.88-2.76-5.8-5.1-4.93-6.18c.82-.68 3.19-.55 5.14.64a29.2 29.2 0 0 1 3.05 2.09c-.06-.19-.12-.35-.14-.43-.09-.3.29-.74.8-.33s3.09 0 4.17-.57l.09-.05c1-.58.87.29.64 1a2.84 2.84 0 0 0-.12.87z"/><path class="cls-21" d="m310.5 245.83.09-.05c1-.58.87.29.64 1a2.84 2.84 0 0 0-.12.86m-5.81.67c.69.11.54-.62.37-1.14"/><path class="cls-22" d="M297.34 244.74c-.31.25-.78.72.43 2.32a14.58 14.58 0 0 0 4.61 4c1.32.55 3.38 2.68 4.39 2.8a4.84 4.84 0 0 0 2.85-.39c.9-.44 2.09-.78 1.66-2.17"/><path d="M305.76 168.75c-.06.15-.45.76-.45.76l-.15.14-.47-.18-.45.3-.4-.22s-.06-.5-.36.1c-.12-.28-.86-.23-1.74-.76a3.15 3.15 0 0 1-1.06-2.71c.11-.61.69-.93.34-1.31s-.48-.24-.75-.08-.6-.32-1.62-.65c-.09 0-1.12-2.63-.77-3.79a4.24 4.24 0 0 1 2.16-3 7 7 0 0 1 5.12-.66c1.72.52 3.43.94 4.08 4.66a6.34 6.34 0 0 1-1.61 6 3.79 3.79 0 0 1-1.07.88c-.31.28-.56-.03-.8.52z"/><path d="M316.53 186.52a3.29 3.29 0 0 1-1.34 1 4.82 4.82 0 0 1-3.3.2c.15-3.54.27-6.22.27-6.22l1-7.75a1.23 1.23 0 0 1 .27.52c.64 2.43 2.45 9.44 3.1 12.25z" style="fill:#e49056"/><path d="M315.34 191.29a1.5 1.5 0 0 1-1.84 1.57l-2.69-1.24c.06-1.78 1-2.38 1.08-4a4.82 4.82 0 0 0 3.3-.2z" style="fill:#fae6d2"/><path class="cls-25" d="M300.82 166.25a2.91 2.91 0 0 0 .92 2.45c.77.47 1.43.43 1.53.68l.33-.68.33.79.25-.66.57.55.08-.8s.37.94.43.8c.19-.49.23-.43.5-.63-.12 1.32-.46 3.57.47 3.71l.54.08c-1.08 1.73-6 1.17-6.78.2a2.38 2.38 0 0 0 1.16-.67c.59-1 .86-3 0-3.27a2.47 2.47 0 0 1-1.88-2.11c-.11-.51-.23-1.65-.33-2.45.89.29 1.14.59 1.36.46a.62.62 0 0 1 .87.14c.27.34-.26.85-.35 1.41z"/><path d="M294.81 182.83a.83.83 0 0 1-.41 1.1l-9.4 4.29a.83.83 0 0 1-1.1-.41l-6.05-13.32a.83.83 0 0 1 .41-1.1l9.45-4.29a.83.83 0 0 1 1.1.41z" style="fill:#d3d3d3"/><path class="cls-27" d="m288.29 170.34 5.14 11.31a.72.72 0 0 1-.36 1l-8.24 3.75a.73.73 0 0 1-1-.36l-5.14-11.31a.72.72 0 0 1 .36-1l8.24-3.75a.73.73 0 0 1 1 .36z"/><circle class="cls-27" cx="289.29" cy="185.23" r=".5" transform="rotate(-80.22 289.266 185.232)"/><path class="cls-25" d="M285.93 190.32s-1.4-1.52-2-2.13-1.86-2.34-2-2.46-1.82-5.36-2.18-5.62.5-.8 1.14.51 1.86 3 2.43 3 .31-1.59.72-1.85.35 0 .5.15-.34 2 .09 2.65.34 1.79.66 2.29l1.84 2.88z"/><path class="cls-25" d="M284.63 188.92s3.61 4.34 7 6c.17.08 1.22.48 1.51-.1a24.27 24.27 0 0 0 1-4.75c.07-.34.25-4 .25-4l-3.51-1.07-.28 5.53a.06.06 0 0 1-.09.05l-4.73-2.84z"/><path class="cls-20" d="m313.16 173.71-1 7.75s-.12 2.68-.27 6.22c-.07 1.59-.14 3.35-.2 5.13-.19 5.23-.33 10.58-.15 11.9h-.28c-1.85.25-11.81.82-15.38.24a3.6 3.6 0 0 1-1-.29c.28-1.59.43-20.67.43-20.67s-.35 2.07-.51 3.67c-1.63.6-2.42.32-4.63-.63.18-1.38 1.93-9.68 3.19-12.13a2.78 2.78 0 0 1 2.15-1.29 26.47 26.47 0 0 0 4.5-.92c.76 1 5.7 1.53 6.78-.2 1.28.18 4.1.53 5.54.71a1.31 1.31 0 0 1 .83.51z"/><path d="M311.26 204.76 310.1 225v21c-.53.24-3 .89-3.86.38l-1-20.22-1-16.14a.67.67 0 0 0-.73-.63.65.65 0 0 0-.44.2.71.71 0 0 0-.19.44l-2.76 16.56-.52 16.41v.05l-.27 4.33c-1.13.44-3.76.56-4.21.12l-.74-22.18 1.5-20.36c3.57.62 13.53.04 15.38-.2z" style="fill:#398eed"/><path class="cls-19" d="M300.08 252.26a4.88 4.88 0 0 1-2.65 1.13c-1 .15-3.56-1.37-5-1.55a14.41 14.41 0 0 1-5.5-2.63c-1.59-1.22-1.25-1.8-1-2.12.07 1.34 3.28 3.6 6.44 4.32 3.44.78 5.13 1.94 6.4 1.11 1-.65 2.21-1.59 2.33-2.79.78 1.27-.27 1.87-1.02 2.53z"/><path class="cls-20" d="M300 246.27a22.16 22.16 0 0 0 .95 2.44c.72 1.7-.89 3-2.16 3.81s-3-.33-6.4-1.11-6.94-3.39-6.39-4.66c.62-.88 2.94-1.37 5.13-.74a30.64 30.64 0 0 1 3.5 1.21l-.26-.38c-.16-.26.09-.79.69-.53s3-.82 3.87-1.64l.08-.07c.83-.84.91.05.88.81a3.07 3.07 0 0 0 .11.86z"/><path class="cls-21" d="m298.92 244.67.08-.07c.83-.84.78.06.88.81a18.24 18.24 0 0 0 1.23 4.32m-6.55-1.3c.69-.07.36-.75.06-1.2"/><path class="cls-22" d="M285.94 247.08c-.23.32-.57.9 1 2.12a14.41 14.41 0 0 0 5.5 2.63c1.41.18 4 1.7 5 1.55a4.88 4.88 0 0 0 2.65-1.13c.75-.66 1.8-1.3 1-2.53"/></g></g></svg>