<svg xmlns="http://www.w3.org/2000/svg" width="132" height="128" class="icon" viewBox="0 0 1056 1024"><path fill="#DFEEFE" d="m96 800 416 224 416-224-416-224z" opacity=".514"/><path fill="#DFEEFE" d="m16 576 520 272 520-272-520-272z"/><path fill="#CBE4FE" d="M14.4 576v44.8l520 270.4V848z"/><path fill="#EAF4FE" d="M1054.4 576v44.8l-520 270.4V848z"/><path fill="#148BFF" d="m272 520 259.2 136L792 520 531.2 384z" opacity=".488"/><path fill="#A6D8FF" d="M680 262.4c0 1.6-1.6 1.6 0 0l-1.6 1.6v12.8c0 6.4 3.2 11.2 8 14.4l32 17.6c-4.8-3.2-8-8-8-14.4v-12.8h1.6l-1.6-1.6-30.4-17.6zm17.6-3.2c-1.6 0-1.6 0 0 0-1.6 0-1.6 0 0 0-1.6 0-1.6-1.6-1.6-1.6h-16l32 17.6h20.8l-35.2-16z"/><path fill="#51A9FF" d="M731.2 278.4c4.8 4.8 8 12.8 4.8 19.2-1.6 6.4-4.8 12.8-8 19.2 0 1.6-1.6 3.2-1.6 3.2l-16-8c-3.2-3.2-6.4-8-6.4-16 0-6.4 3.2-12.8 8-17.6l-1.6-1.6c3.2-1.6 4.8-3.2 8-3.2 4.8 1.6 9.6 1.6 12.8 4.8"/><path fill="#A6D8FF" d="M731.2 176c1.6 0 1.6 0 0 0 1.6 0 1.6 0 0 0h6.4l-32-17.6h-16l-83.2 64s-1.6 0-1.6 1.6v12.8c0 6.4 3.2 11.2 8 14.4l32 17.6c-4.8-3.2-8-8-8-14.4v-12.8s1.6 0 1.6-1.6l83.2-64h9.6"/><path fill="#51A9FF" d="M746.832 189.824c0 3.2 1.6 6.4 0 9.6 1.6 8-3.2 16-9.6 20.8l-75.2 57.6c-3.2 1.6-6.4 3.2-9.6 3.2-3.2 0-6.4 0-8-1.6l-6.4-3.2c-6.4-1.6-9.6-8-9.6-14.4s3.2-12.8 9.6-17.6l83.2-64c3.2-3.2 4.8-3.2 8-4.8h8c4.8 3.2 9.6 8 9.6 14.4z"/><path fill="#A6D8FF" d="M696 105.6c1.6 0 1.6 0 0 0 1.6 0 1.6-1.6 1.6-1.6h17.6l-32-17.6h-20.8L536 187.2s-1.6 0-1.6 1.6v17.6c0 6.4 3.2 11.2 8 14.4l32 17.6c-11.2 1.6-14.4-3.2-14.4-11.2v-17.6s1.6 0 1.6-1.6L688 110.4c6.4-3.2 6.4-4.8 8-4.8"/><path fill="#51A9FF" d="M568 243.2c-4.8-3.2-8-8-8-16v-6.4c0-6.4 3.2-12.8 8-17.6l126.4-97.6c3.2-1.6 4.8-3.2 8-3.2 6.4-1.6 11.2 1.6 14.4 6.4 1.6 1.6 4.8 4.8 4.8 8 3.2 3.2 3.2 9.6 1.6 14.4 0 4.8-3.2 9.6-6.4 12.8l-128 99.2c-3.2 1.6-4.8 3.2-8 3.2s-6.4 0-8-1.6l-4.8-1.6z"/><path fill="#A6D8FF" d="M632 33.6c-1.6 0-1.6 0 0 0-1.6 0-1.6 0 0 0-1.6 0-1.6-1.6-1.6-1.6h-16l-76.8 62.4L536 96v11.2l24 20.8v-9.6l1.6-1.6-12.8-17.6 20.8 11.2 75.2-57.6h22.4L632 33.6zM528 120c0 6.4 3.2 12.8 8 14.4l32 17.6c-4.8-1.6-8-8-8-14.4V128l-32-16v8z"/><path fill="#51A9FF" d="M568 153.6c-4.8-3.2-8-9.6-8-16V128c0-6.4 3.2-12.8 8-17.6l75.2-57.6c3.2-3.2 6.4-3.2 9.6-4.8 3.2 0 6.4 0 9.6 1.6 3.2 1.6 4.8 3.2 6.4 4.8 4.8 3.2 6.4 9.6 6.4 14.4 0 6.4-3.2 12.8-8 16l-81.6 65.6c-1.6 1.6-4.8 3.2-8 3.2-3.2 1.6-6.4 0-9.6 0"/><path fill="#BFE5FC" d="M422.4 459.2c-12.8-6.4-27.2-14.4-43.2-24-24-14.4-32-22.4-49.6-48l33.6 20.8c16 25.6 35.2 38.4 59.2 51.2"/><path fill="#A6D8FF" d="m361.6 408-32-17.6 171.2-129.6 32 17.6z"/><path fill="#51A9FF" d="m361.6 408 171.2-129.6L704 360c-40 64-104 108.8-171.2 118.4-67.2 9.6-131.2-17.6-171.2-70.4M563.2 56c-4.8-3.2-9.6-8-9.6-14.4V19.2h3.2l19.2 1.6c8 0 12.8 6.4 14.4 14.4 1.6 8-3.2 16-9.6 20.8-3.2 1.6-6.4 3.2-8 3.2-3.2-1.6-6.4-3.2-9.6-3.2"/><path fill="#A6D8FF" d="M580.352 19.2h1.6l-32-17.6h-3.2l-20.8-1.6h-3.2v22.4c0 6.4 3.2 11.2 8 14.4l32 17.6c-4.8-1.6-8-8-8-14.4V17.6h3.2l19.2 1.6c0-1.6 0-1.6 3.2 0-1.6-1.6-1.6-1.6 0 0-1.6 0-1.6 0 0 0"/><path fill="#51A9FF" d="M512 240 339.2 371.2C326.4 344 320 312 320 280c0-118.4 64-230.4 190.4-262.4L512 240z"/><path fill="#A6D8FF" d="M288 257.6c0 33.6 6.4 64 19.2 92.8l32 17.6c-12.8-28.8-19.2-60.8-19.2-92.8 0-120 83.2-230.4 192-257.6L480 0C371.2 27.2 288 139.2 288 257.6"/></svg>