<svg xmlns="http://www.w3.org/2000/svg" width="1024" height="1024" viewBox="0 0 1024 1024"><defs><linearGradient id="b" x1="0.5" x2="0.5" y1="0" y2="1" gradientUnits="objectBoundingBox"><stop offset="0" stop-color="#72a0e8"/><stop offset="0.9939955" stop-color="#3981f7"/></linearGradient><linearGradient id="c" x1="0.5" x2="0.5" y1="0" y2="1" gradientUnits="objectBoundingBox"><stop offset="0.0127618965" stop-color="#b7d2ff"/><stop offset="1" stop-color="#93bbff"/></linearGradient><linearGradient id="d" x1="0.5" x2="0.5" y1="0" y2="1" gradientUnits="objectBoundingBox"><stop offset="0" stop-color="#72a0e8"/><stop offset="0.9939955" stop-color="#3981f7"/></linearGradient><linearGradient id="e" x1="0.5" x2="0.5" y1="0" y2="1" gradientUnits="objectBoundingBox"><stop offset="0.0127618965" stop-color="#b7d2ff"/><stop offset="1" stop-color="#93bbff"/></linearGradient><linearGradient id="f" x1="0.5" x2="0.5" y1="0" y2="1" gradientUnits="objectBoundingBox"><stop offset="0" stop-color="#72a0e8"/><stop offset="0.9939955" stop-color="#3981f7"/></linearGradient><linearGradient id="g" x1="0.5" x2="0.5" y1="0" y2="1" gradientUnits="objectBoundingBox"><stop offset="0.0127618965" stop-color="#b7d2ff"/><stop offset="1" stop-color="#93bbff"/></linearGradient><linearGradient id="h" x1="1" x2="0" y1="0.5" y2="0.5" gradientUnits="objectBoundingBox"><stop offset="0" stop-color="#78abff"/><stop offset="1" stop-color="#3a82f6"/></linearGradient><linearGradient id="i" x1="0.91738" x2="0.070548445" y1="0.56938475" y2="0.13717015" gradientUnits="objectBoundingBox"><stop offset="0" stop-color="#99c0ff"/><stop offset="0.9985283" stop-color="#dbe9ff"/></linearGradient><linearGradient id="j" x1="0.8797319" x2="0.32330936" y1="0.0900319" y2="0.9221393" gradientUnits="objectBoundingBox"><stop offset="0" stop-color="#f1f7ff"/><stop offset="1" stop-color="#a2caff"/></linearGradient><linearGradient id="k" x1="1" x2="0" y1="0.5" y2="0.5" gradientUnits="objectBoundingBox"><stop offset="0" stop-color="#619bff"/><stop offset="1" stop-color="#8cb8ff"/></linearGradient><linearGradient id="l" x1="1" x2="0" y1="0.5" y2="0.5" gradientUnits="objectBoundingBox"><stop offset="0" stop-color="#6398ec"/><stop offset="1" stop-color="#3e84f6"/></linearGradient><linearGradient id="m" x1="0.91738" x2="0.070548445" y1="0.5700933" y2="0.13346532" gradientUnits="objectBoundingBox"><stop offset="0" stop-color="#5e9bff"/><stop offset="1" stop-color="#e2edff"/></linearGradient><radialGradient id="a" cx="0.5" cy="0.024677966" r="0.70727026" fx="0.5" fy="0.024677966" gradientTransform="matrix(-.01748 .99965 -.66306 -.02635 .525 -.474)" gradientUnits="objectBoundingBox"><stop offset="0" stop-color="#b8b8b8" stop-opacity="0.21176471"/><stop offset="1" stop-color="#0052d9" stop-opacity="0"/></radialGradient><radialGradient id="n" cx="0.24042307" cy="0.5" r="0.66169447" fx="0.24042307" fy="0.5" gradientUnits="objectBoundingBox"><stop offset="0" stop-color="#f2f7ff"/><stop offset="1" stop-color="#99c0ff"/></radialGradient></defs><path fill="url(#a)" d="m932.63 719-.23 9.24-.69 9.18-1.13 9.12-1.58 9.08-2.03 9.05-2.49 9.01-3.52 10.58-4.13 10.49-4.75 10.4-5.4 10.34-6.07 10.28-6.47 9.83-7.08 9.71-7.71 9.6-8.36 9.49-9.03 9.39-9.25 8.84-9.86 8.66-10.48 8.5-11.13 8.33-11.81 8.16-11.93 7.61-12.36 7.28-12.8 6.97-13.25 6.66-13.72 6.32-13.78 5.84-14.12 5.49-14.47 5.13-14.83 4.77-15.2 4.41-15.2 3.95-15.44 3.56-15.7 3.17-15.96 2.77-16.23 2.38-16.18 1.93-16.34 1.51-16.48 1.09-16.64.65-16.8.23-16.8-.23-16.64-.65-16.48-1.09-16.34-1.51-16.18-1.93-16.23-2.38-15.96-2.77-15.7-3.17-15.44-3.56-15.2-3.95-15.2-4.41-14.83-4.77-14.47-5.13-14.12-5.49-13.78-5.84-13.72-6.32-13.25-6.66-12.8-6.97-12.36-7.28-11.93-7.61-11.81-8.16-11.13-8.33-10.48-8.5-9.86-8.66-9.25-8.84-9.03-9.39-8.36-9.49-7.71-9.6-7.08-9.71-6.47-9.83-6.07-10.28-5.4-10.34-4.75-10.4-4.13-10.49-3.52-10.58-2.49-9.01-2.03-9.05-1.58-9.08-1.13-9.12-.69-9.18-.23-9.24.23-9.24.69-9.18 1.13-9.12 1.58-9.08 2.03-9.05 2.49-9.01 3.52-10.58 4.13-10.49 4.75-10.4 5.4-10.34 6.07-10.28 6.47-9.83 7.08-9.71 7.71-9.6 8.36-9.49 9.03-9.39 9.25-8.84 9.86-8.66 10.48-8.5 11.13-8.33 11.81-8.16 11.93-7.61 12.36-7.28 12.8-6.97 13.25-6.66 13.72-6.32 13.78-5.84 14.12-5.49 14.47-5.13 14.83-4.77 15.2-4.41 15.2-3.95 15.44-3.56 15.7-3.17 15.96-2.77 16.23-2.38 16.18-1.93 16.34-1.51 16.48-1.09 16.64-.65L512 440l16.8.23 16.64.65 16.48 1.09 16.34 1.51 16.18 1.93 16.23 2.38 15.96 2.77 15.7 3.17 15.44 3.56 15.2 3.95 15.2 4.41 14.83 4.77 14.47 5.13 14.12 5.49 13.78 5.84 13.72 6.32 13.25 6.66 12.8 6.97 12.36 7.28 11.93 7.61 11.81 8.16 11.13 8.33 10.48 8.5 9.86 8.66 9.25 8.84 9.03 9.39 8.36 9.49 7.71 9.6 7.08 9.71 6.47 9.83 6.07 10.28 5.4 10.34 4.75 10.4 4.13 10.49 3.52 10.58 2.49 9.01 2.03 9.05 1.58 9.08 1.13 9.12.69 9.18.23 9.24Z"/><path fill="#3f78d6" d="M229.77 537h10.38v54.67l-.2 1.45-.5 1.24-.82 1.08-1.05.84-1.21.52-1.41.2-1.41-.2-1.2-.52-1.06-.84-.81-1.08-.51-1.24-.2-1.45V537Z"/><path fill="url(#b)" fill-rule="evenodd" d="M229.77 507 254 570.33 229.77 587Z"/><path fill="url(#c)" fill-rule="evenodd" d="M229.77 507 209 577l20.77 10Z"/><path fill="#3f78d6" d="M807 495h8v42.82l-.32 1.64-.85 1.32-1.27.89-1.56.33-1.56-.33-1.27-.89-.85-1.32-.32-1.64V495Z"/><path fill="url(#d)" fill-rule="evenodd" d="m807 472 19 49.08L807 534Z"/><path fill="url(#e)" fill-rule="evenodd" d="m807 472-16 54.25 16 7.75Z"/><path fill="#3f78d6" d="M281 463h8v41l-.32 1.57-.85 1.26-1.26.85-1.57.32-1.57-.32-1.26-.85-.85-1.26L281 504v-41Z"/><path fill="url(#f)" fill-rule="evenodd" d="m281 440 18 47.5-18 12.5Z"/><path fill="url(#g)" fill-rule="evenodd" d="m281 440-16 52.5 16 7.5Z"/><path fill="url(#h)" fill-rule="evenodd" d="m669.8 591.15 23.14-163.98-.02-1.86-.52-1.68-.96-1.46-1.32-1.15-1.61-.75-1.85-.27H515.22L484 602h173.24l2.09-.18 1.95-.47 1.83-.78 1.69-1.05 1.47-1.28 1.29-1.51 1.03-1.69.74-1.85.47-2.04"/><path fill="url(#i)" fill-rule="evenodd" d="m663.8 588.15 23.14-163.98-.02-1.86-.52-1.68-.96-1.46-1.32-1.15-1.61-.75-1.85-.27H509.22L478 599h173.24l2.09-.18 1.95-.47 1.83-.78 1.69-1.05 1.47-1.28 1.29-1.51 1.03-1.69.74-1.85.47-2.04"/><path fill="url(#j)" fill-rule="evenodd" d="m714 344.96-132.19-28.34-3.26-.49-3.18-.12-3.1.23-3.05.59-3.93 1.31-3.65 1.84-3.39 2.4-3.01 2.87-2.57 3.32-2.15 3.83L510 419.82 654.85 566l1.65-27.14 1.86-23.47 2.03-20.15 2.16-17.16 2.25-14.48 2.31-12.1 2.34-9.99 6.23-23.34 3.37-11.52 3.59-11.04 2.63-7.24 2.77-6.84 2.91-6.47 3.23-6.3 3.42-5.76 3.6-5.23 4.02-4.91 4.26-4.25 4.52-3.65Z"/><path fill="url(#k)" fill-rule="evenodd" d="M539.35 563.95 661 551.09 644.83 390.5l-.53-2.32-1.03-2.03-1.48-1.71-1.83-1.31-2.11-.83-2.34-.3h-90.3l-16.17 171.64.02 1.98.38 1.81.72 1.67 1.02 1.5 1.25 1.26 1.5 1.01 1.67.71 1.79.36 1.96.01"/><path fill="url(#l)" fill-opacity="0.52750653" fill-rule="evenodd" d="m366.04 374.36 19.72 205.83.53 3.23.87 3 1.21 2.8 1.55 2.64 1.87 2.43 2.09 2.16 2.34 1.88 2.59 1.63 2.77 1.3 2.89.94 3.06.58 3.25.22h244.79l1.85-.18 1.66-.49 1.53-.79 1.37-1.06 1.12-1.25.91-1.47.63-1.6.31-1.72v-1.85l-20.42-201.54-.53-2.32-1.04-2.03-1.48-1.71-1.85-1.31-2.12-.84-2.35-.29H451.01l-10.44-14.61-1.52-1.66-1.83-1.24-2.07-.77-2.24-.27h-57.48l-1.84.18-1.66.49-1.53.78-1.36 1.05-1.13 1.25-.91 1.46-.63 1.59-.32 1.71-.01 1.85"/><path fill="url(#m)" fill-rule="evenodd" d="m380.73 580.33.53 3.21.87 2.98 1.22 2.79 1.55 2.62 2.53 3.16 2.96 2.68 3.4 2.21 2.76 1.29 2.9.93 3.05.58 3.25.22h244.82l1.85-.18 1.67-.49 1.53-.79 1.36-1.05 1.13-1.25.91-1.47.62-1.6.32-1.71-.01-1.85-20.37-194.9-.54-2.3-1.04-2.01-1.49-1.7-1.84-1.3-2.11-.83-2.36-.29H446.01l-10.5-16.84-1.52-1.87-1.9-1.39-2.19-.87-2.39-.31h-57.08l-1.84.18-1.66.49-1.53.78-1.36 1.04-1.13 1.24-.91 1.46-.63 1.59-.32 1.7v1.84l19.68 202.01Z"/><path fill="#fffaf4" fill-opacity="0.8" d="M413.5 466h98l1.22.17 1.05.44.91.71.71.91.44 1.05.17 1.22v20l-.17 1.22-.44 1.05-.71.91-.91.71-1.05.44-1.22.17h-98l-1.22-.17-1.05-.44-.91-.71-.71-.91-.44-1.05-.17-1.22v-20l.17-1.22.44-1.05.71-.91.91-.71 1.05-.44 1.22-.17Zm0 60h62l1.22.17 1.05.44.91.71.71.91.44 1.05.17 1.22v20l-.17 1.22-.44 1.05-.71.91-.91.71-1.05.44-1.22.17h-62l-1.22-.17-1.05-.44-.91-.71-.71-.91-.44-1.05-.17-1.22v-20l.17-1.22.44-1.05.71-.91.91-.71 1.05-.44 1.22-.17Z"/><path fill="url(#n)" d="m783 368.5-.34 4.88-.93 4.59-1.52 4.35-2.07 4.12-2.53 3.75-3.01 3.41-3.41 3.01-3.75 2.53-4.12 2.07-4.35 1.52-4.59.93-4.88.34-4.88-.34-4.59-.93-4.35-1.52-4.12-2.07-3.75-2.53-3.41-3.01-3.01-3.41-2.53-3.75-2.07-4.12-1.52-4.35-.93-4.59-.34-4.88.34-4.88.93-4.59 1.52-4.35 2.07-4.12 2.53-3.75 3.01-3.41 3.41-3.01 3.75-2.53 4.12-2.07 4.35-1.52 4.59-.93 4.88-.34 4.88.34 4.59.93 4.35 1.52 4.12 2.07 3.75 2.53 3.41 3.01 3.01 3.41 2.53 3.75 2.07 4.12 1.52 4.35.93 4.59.34 4.88Z"/><path fill="url(#n)" fill-opacity="0.56253344" d="m361 579.5-.33 3.56-.89 3.26-1.44 3.02-1.94 2.74-2.32 2.32-2.74 1.94-3.02 1.44-3.26.89-3.56.33-3.56-.33-3.26-.89-3.02-1.44-2.74-1.94-2.32-2.32-1.94-2.74-1.44-3.02-.89-3.26-.33-3.56.33-3.56.89-3.26 1.44-3.02 1.94-2.74 2.32-2.32 2.74-1.94 3.02-1.44 3.26-.89 3.56-.33 3.56.33 3.26.89 3.02 1.44 2.74 1.94 2.32 2.32 1.94 2.74 1.44 3.02.89 3.26.33 3.56Z"/></svg>