<svg xmlns="http://www.w3.org/2000/svg" width="128" height="128" class="icon" viewBox="0 0 1024 1024"><path fill="#82c9f5" d="M400.01 789.13a274.123 274.123 0 1 0-167.497-216.99A274.123 274.123 0 0 0 400.01 789.13zm0 0"/><path fill="#0D51A2" d="M590.344 480.63h-4.714L146.773 355.312a15.197 15.197 0 0 1-10.971-12.516 14.872 14.872 0 0 1 6.258-15.685l282.25-203.58a23.324 23.324 0 0 1 14.14-3.17l438.858 125.318a15.197 15.197 0 0 1 10.971 12.515 14.872 14.872 0 0 1-6.257 15.685L599.69 477.542a22.268 22.268 0 0 1-9.427 3.17zm-402.61-147.424 400.985 114.59L837.81 267.623 436.825 153.275zm79.075 341.334 46.974-33.971 18.367 25.844-46.974 33.97zm97.524-31.452-18.774-25.03 78.344-56.402a21.049 21.049 0 0 1 14.141-3.17l94.03 26.657-8.127 29.745-86.146-25.031zm190.334-17.31 8.614-30.151 78.344 22.024-8.614 30.15zm110.039 31.532 8.615-30.15 63.228 18.041-8.615 30.151zm0 0"/><path fill="#0D51A2" d="M590.344 919.324h-4.714L146.773 794.006a15.197 15.197 0 0 1-10.971-12.515 14.872 14.872 0 0 1 6.258-15.685l94.029-67.373 19.017 24.869-67.373 48.761L588.8 886.41l249.01-180.175-78.343-21.943 8.127-29.745 109.633 31.37a15.197 15.197 0 0 1 10.971 12.516 14.872 14.872 0 0 1-6.258 15.685L599.934 917.78c-3.17 0-6.258 1.544-9.427 1.544zm0 0"/><path fill="#0D51A2" d="M136.046 339.708h31.37v438.857h-31.37zm438.857 125.318h31.37v438.857h-31.614zM417.97 480.63h31.37v94.029h-31.37zm0-109.633h31.37v78.344h-31.37zm0-94.03h31.37v62.74h-31.37zm0-141.003h31.37V245.68h-31.37zm438.857 125.319h31.37V700.14h-31.37zm0 0"/><path fill="#82c9f5" d="M637.318 903.64a46.974 46.974 0 1 1-46.974-46.975 46.161 46.161 0 0 1 46.974 46.974zm0 0"/><path fill="#0D51A2" d="M590.344 966.298a62.659 62.659 0 1 1 62.66-62.659 62.822 62.822 0 0 1-62.66 62.66zm0-94.029a31.289 31.289 0 1 0 31.37 31.37 31.451 31.451 0 0 0-31.37-31.37zm0 0"/><path fill="#82c9f5" d="M919.324 699.977a46.974 46.974 0 1 1-46.974-46.974 46.161 46.161 0 0 1 46.974 46.974zm0 0"/><path fill="#0D51A2" d="M872.27 762.636a62.659 62.659 0 1 1 62.333-62.659 62.822 62.822 0 0 1-62.659 62.66zm0-94.029a31.37 31.37 0 1 0 31.288 31.37 31.451 31.451 0 0 0-31.289-31.37zm0 0"/><path fill="#82c9f5" d="M480.63 574.659a46.974 46.974 0 1 1-46.974-46.974 46.161 46.161 0 0 1 46.974 46.974zm0 0"/><path fill="#0D51A2" d="M433.656 637.318a62.659 62.659 0 1 1 62.659-62.659 62.822 62.822 0 0 1-62.66 62.66zm0-94.03a31.37 31.37 0 1 0 31.289 31.29 31.451 31.451 0 0 0-31.29-31.29zm0 0"/><path fill="#82c9f5" d="M198.705 778.321a46.161 46.161 0 0 1-46.974 46.974 46.974 46.974 0 1 1 0-94.029 46.161 46.161 0 0 1 46.974 46.974zm0 0"/><path fill="#0D51A2" d="M151.73 840.98a62.659 62.659 0 1 1 62.66-62.659 62.822 62.822 0 0 1-62.66 62.66zm0-94.029a31.289 31.289 0 1 0 31.371 31.37 31.451 31.451 0 0 0-31.37-31.37zm0 0"/><path fill="#82c9f5" d="M198.705 339.708a46.161 46.161 0 0 1-46.974 46.974 46.974 46.974 0 0 1 0-94.03 46.161 46.161 0 0 1 46.974 46.975zm0 0"/><path fill="#0D51A2" d="M151.73 402.367a62.659 62.659 0 1 1 62.66-62.66 56.889 56.889 0 0 1-18.773 43.887 56.889 56.889 0 0 1-43.886 18.773zm0-94.03a31.37 31.37 0 0 0 0 62.66 32.508 32.508 0 0 0 31.371-31.37 31.451 31.451 0 0 0-31.37-31.37zm0 0"/><path fill="#82c9f5" d="M480.63 136.046a46.974 46.974 0 0 1-94.03 0 46.974 46.974 0 0 1 94.03 0zm0 0"/><path fill="#0D51A2" d="M433.656 198.705a56.889 56.889 0 0 1-43.56-18.774 61.846 61.846 0 0 1-18.774-43.885 62.659 62.659 0 1 1 62.659 62.659zm0-94.03a31.451 31.451 0 0 0-31.37 31.29 32.508 32.508 0 0 0 31.37 31.37 31.289 31.289 0 0 0 0-62.66zm0 0"/><path fill="#82c9f5" d="M919.324 261.364a46.974 46.974 0 1 1-46.974-46.974 46.161 46.161 0 0 1 46.974 46.974zm0 0"/><path fill="#0D51A2" d="M872.27 324.023a62.659 62.659 0 1 1 62.333-62.66 62.822 62.822 0 0 1-62.659 62.66zm0-94.03a31.289 31.289 0 1 0 31.288 31.29 31.451 31.451 0 0 0-31.289-31.29zm0 0"/><path fill="#82c9f5" d="M637.318 465.026a46.974 46.974 0 1 1-46.974-46.974 46.161 46.161 0 0 1 46.974 46.974zm0 0"/><path fill="#0D51A2" d="M590.344 527.685a62.659 62.659 0 1 1 62.66-62.659 62.822 62.822 0 0 1-62.66 62.66zm0-94.03a31.289 31.289 0 1 0 31.37 31.371 31.451 31.451 0 0 0-31.37-31.37zm0 0"/></svg>