<svg xmlns="http://www.w3.org/2000/svg" viewBox="0 0 512 512"><path d="M247.8 474.12c61.315 0 112.09-26.692 147.65-59.495l-1.695 75.58c-.177 10.509 8.207 19.178 18.721 19.349h.323c10.364 0 18.855-8.32 19.033-18.721l2.539-126.18a19.045 19.045 0 0 0-5.585-13.784 18.991 18.991 0 0 0-13.784-5.572l-126.73 2.538c-10.509.184-18.885 8.847-18.708 19.362.178 10.401 8.67 18.714 19.032 18.714h.33l83.195-1.795c-29.35 27.815-72.656 51.93-124.33 51.93-105.91 0-177.05-91.548-177.05-177.05-.317-10.248-6.295-19.251-18.532-19.48-12.237-.227-19.196 8.184-19.543 19.487 0 103.89 86.446 215.13 215.13 215.13zm4.354-435.25c-61.315 0-112.09 26.692-147.65 59.495l1.695-75.579c.176-10.509-8.207-19.178-18.721-19.349h-.324c-10.364 0-18.855 8.32-19.033 18.721l-2.538 126.18a19.045 19.045 0 0 0 5.584 13.784 18.992 18.992 0 0 0 13.784 5.572l126.73-2.538c10.51-.184 18.885-8.847 18.708-19.362-.178-10.401-8.668-18.714-19.032-18.714h-.33l-83.194 1.795c29.35-27.815 72.656-51.93 124.33-51.93 105.91 0 177.05 91.548 177.05 177.05.317 10.248 6.295 19.251 18.532 19.48 12.237.227 19.196-8.184 19.543-19.487 0-103.89-86.446-215.13-215.13-215.13z"/></svg>