<svg xmlns="http://www.w3.org/2000/svg" viewBox="0 0 512 512"><path d="m450.25 44.182-133.13 1.17c-9.691.076-17.482 7.985-17.406 17.67.076 9.638 27.155 17.4 17.535 17.4h.129l90.35-.844-116.88 116.87c-6.85 6.844-6.85 17.95 0 24.793a17.472 17.472 0 0 0 12.396 5.139c4.483 0 8.973-1.714 12.398-5.139l116.87-116.88-.842 90.344c-.07 9.685 7.72 17.594 17.404 17.67h.129c9.62 0 17.459-7.762 17.535-17.4l1.168-133.13-.002-.049c.003-.514-.024-1.03-.066-1.543-.004-.053-.001-.107-.006-.16l-.002-.008a17.448 17.448 0 0 0-3.885-9.472 17.553 17.553 0 0 0-2.48-2.48c-.242-.199-.497-.37-.747-.553-.215-.158-.423-.326-.644-.473a17.322 17.322 0 0 0-1.094-.654c-.126-.071-.246-.153-.373-.221-.425-.226-.86-.424-1.299-.613-.082-.036-.161-.08-.244-.114a17.41 17.41 0 0 0-1.299-.466c-.107-.035-.212-.079-.32-.112-.376-.113-.757-.2-1.139-.287-.18-.041-.357-.095-.539-.13-.309-.061-.62-.095-.932-.14-.256-.036-.51-.086-.77-.11a17.624 17.624 0 0 0-1.693-.085zM62.8 299.802c-9.62 0-17.459 7.766-17.535 17.404l-1.17 133.12.002.049c-.002.514.024 1.028.067 1.54.004.057.002.113.007.169a17.454 17.454 0 0 0 3.881 9.472c.367.448.756.883 1.174 1.301h.002c.207.208.43.39.645.584.217.198.427.407.654.592.298.244.61.46.92.682.159.113.31.24.472.347.375.25.762.47 1.15.688.11.06.213.133.323.191.387.206.785.384 1.184.559.125.055.246.121.373.174.369.152.746.276 1.123.402.166.056.328.123.496.174.47.141.944.254 1.422.355.073.016.143.039.217.053.468.093.94.157 1.414.211.098.011.194.031.293.041.57.056 1.678-.486 1.716.086h.135l133.13-1.17c9.685-.07 17.476-7.983 17.4-17.662-.076-9.69-8.126-17.387-17.67-17.404l-90.338.84 116.87-116.87c6.844-6.844 6.85-17.943 0-24.793s-17.955-6.85-24.799 0l-116.87 116.86.844-90.344c.076-9.68-7.715-17.586-17.4-17.662z"/></svg>