<svg xmlns="http://www.w3.org/2000/svg" viewBox="0 0 512 512"><path d="M256 0c-1.245 0-2.459.128-3.639.352-.066.012-.133.018-.199.03-.579.117-1.146.264-1.705.43-.047.014-.096.023-.143.038a19.351 19.351 0 0 0-5.062 2.396c-.031.02-.065.038-.096.059-.326.219-.632.463-.943.7a19.44 19.44 0 0 0-2.024 1.743l-75.18 75.828c-7.563 7.628-7.504 19.937.118 27.5 7.628 7.557 19.94 7.505 27.498-.117l41.932-42.291v169.89H66.677l42.295-41.926c7.622-7.563 7.678-19.87.115-27.498s-19.876-7.68-27.498-.117L5.76 242.197l-.008.01a19.428 19.428 0 0 0-4.898 8.11c-.005.014-.007.03-.012.046-.178.59-.333 1.19-.455 1.8-.013.066-.019.134-.031.2A19.353 19.353 0 0 0 .1 254.07a19.664 19.664 0 0 0 0 3.863c.057.578.149 1.145.256 1.707.012.066.018.134.03.2.117.578.264 1.145.43 1.704.015.05.024.101.04.15a19.504 19.504 0 0 0 3.588 6.674l.007.01c.067.082.147.155.215.235.339.397.685.788 1.055 1.156.014.014.025.03.039.043l75.826 75.18a19.397 19.397 0 0 0 13.689 5.633 19.363 19.363 0 0 0 13.805-5.756c7.563-7.628 7.505-19.935-.117-27.498l-42.29-41.926h169.89v169.89l-41.925-42.289c-7.557-7.635-19.87-7.667-27.498-.123-7.622 7.563-7.68 19.872-.117 27.5l75.18 75.826.01.008a19.505 19.505 0 0 0 4.584 3.43c.063.034.13.06.195.093.5.263 1.008.51 1.533.729.029.012.06.02.088.031.551.227 1.114.433 1.69.61.13.04.264.066.396.103.484.137.971.27 1.47.37.066.012.134.018.2.03 1.18.224 2.393.352 3.638.352 1.82 0 3.572-.27 5.242-.736.156-.044.315-.074.47-.121a19.285 19.285 0 0 0 3.161-1.3c.115-.058.234-.106.348-.167.372-.201.728-.428 1.086-.653.187-.116.381-.22.564-.343.105-.071.2-.154.303-.227a19.468 19.468 0 0 0 2.644-2.209l75.18-75.826c7.556-7.628 7.503-19.937-.125-27.5-7.635-7.557-19.94-7.505-27.498.123l-41.932 42.3v-169.9h169.89l-42.293 41.925c-7.628 7.563-7.68 19.87-.123 27.498a19.386 19.386 0 0 0 13.811 5.756 19.41 19.41 0 0 0 13.69-5.633l75.825-75.18.041-.043c.252-.25.482-.523.72-.787.184-.205.38-.4.556-.613.404-.49.783-1 1.138-1.528.025-.037.044-.077.069-.115.327-.493.638-1 .92-1.523.032-.06.056-.125.088-.186.263-.501.51-1.01.73-1.537.013-.03.021-.062.033-.092.225-.547.429-1.105.604-1.675.047-.155.077-.314.121-.47.13-.465.26-.93.355-1.41.013-.063.018-.129.03-.193.223-1.18.351-2.393.351-3.638 0-1.313-.133-2.593-.38-3.832l-.003-.006a19.23 19.23 0 0 0-.353-1.405c-.044-.155-.074-.314-.121-.468a19.298 19.298 0 0 0-.637-1.768c0-.001 0-.003-.002-.004a19.348 19.348 0 0 0-1.805-3.358s0-.003-.002-.004a19.502 19.502 0 0 0-1.136-1.523c-.175-.212-.373-.408-.557-.613-.238-.265-.467-.537-.719-.787l-.04-.043-75.827-75.18c-7.635-7.563-19.943-7.505-27.5.117-7.557 7.628-7.505 19.935.123 27.498l42.295 41.932h-169.89V66.668l41.926 42.289a19.386 19.386 0 0 0 13.811 5.756c4.945 0 9.896-1.874 13.688-5.633 7.628-7.563 7.68-19.872.123-27.5L269.82 5.754c-.013-.014-.029-.026-.043-.04a19.568 19.568 0 0 0-1.386-1.265l-.014-.012a19.362 19.362 0 0 0-12.367-4.44z"/></svg>